<svg viewBox="0 0 1045.5714111328125 400" xmlns="http://www.w3.org/2000/svg"><g><g><g><g><g><line x1="50" y1="377" x2="45" y2="377" style="visibility: inherit;" fill="rgb(0, 0, 0)" stroke="rgb(204, 204, 204)" stroke-width="1px"></line><line x1="50" y1="351.8666666666667" x2="45" y2="351.8666666666667" style="visibility: inherit;" fill="rgb(0, 0, 0)" stroke="rgb(204, 204, 204)" stroke-width="1px"></line><line x1="50" y1="326.73333333333335" x2="45" y2="326.73333333333335" style="visibility: inherit;" fill="rgb(0, 0, 0)" stroke="rgb(204, 204, 204)" stroke-width="1px"></line><line x1="50" y1="301.6" x2="45" y2="301.6" style="visibility: inherit;" fill="rgb(0, 0, 0)" stroke="rgb(204, 204, 204)" stroke-width="1px"></line><line x1="50" y1="276.4666666666667" x2="45" y2="276.4666666666667" style="visibility: inherit;" fill="rgb(0, 0, 0)" stroke="rgb(204, 204, 204)" stroke-width="1px"></line><line x1="50" y1="251.33333333333337" x2="45" y2="251.33333333333337" style="visibility: inherit;" fill="rgb(0, 0, 0)" stroke="rgb(204, 204, 204)" stroke-width="1px"></line><line x1="50" y1="226.20000000000005" x2="45" y2="226.20000000000005" style="visibility: inherit;" fill="rgb(0, 0, 0)" stroke="rgb(204, 204, 204)" stroke-width="1px"></line><line x1="50" y1="201.06666666666672" x2="45" y2="201.06666666666672" style="visibility: inherit;" fill="rgb(0, 0, 0)" stroke="rgb(204, 204, 204)" stroke-width="1px"></line><line x1="50" y1="175.93333333333334" x2="45" y2="175.93333333333334" style="visibility: inherit;" fill="rgb(0, 0, 0)" stroke="rgb(204, 204, 204)" stroke-width="1px"></line><line x1="50" y1="150.8" x2="45" y2="150.8" style="visibility: inherit;" fill="rgb(0, 0, 0)" stroke="rgb(204, 204, 204)" stroke-width="1px"></line><line x1="50" y1="125.66666666666669" x2="45" y2="125.66666666666669" style="visibility: inherit;" fill="rgb(0, 0, 0)" stroke="rgb(204, 204, 204)" stroke-width="1px"></line><line x1="50" y1="100.53333333333332" x2="45" y2="100.53333333333332" style="visibility: inherit;" fill="rgb(0, 0, 0)" stroke="rgb(204, 204, 204)" stroke-width="1px"></line><line x1="50" y1="75.40000000000002" x2="45" y2="75.40000000000002" style="visibility: inherit;" fill="rgb(0, 0, 0)" stroke="rgb(204, 204, 204)" stroke-width="1px"></line><line x1="50" y1="50.266666666666694" x2="45" y2="50.266666666666694" style="visibility: inherit;" fill="rgb(0, 0, 0)" stroke="rgb(204, 204, 204)" stroke-width="1px"></line><line x1="50" y1="25.13333333333337" x2="45" y2="25.13333333333337" style="visibility: inherit;" fill="rgb(0, 0, 0)" stroke="rgb(204, 204, 204)" stroke-width="1px"></line><line x1="50" y1="0" x2="45" y2="0" style="visibility: inherit;" fill="rgb(0, 0, 0)" stroke="rgb(204, 204, 204)" stroke-width="1px"></line></g><g transform="translate(40, 0)"><text x="0" y="377" dx="0em" dy="0.3em" style="text-anchor: end; visibility: hidden; font-family: Roboto, sans-serif; font-size: 12px; font-weight: 200;" fill="rgb(33, 33, 33)" stroke="none" stroke-width="1px">-1.2</text><text x="0" y="351.8666666666667" dx="0em" dy="0.3em" style="text-anchor: end; visibility: inherit; font-family: Roboto, sans-serif; font-size: 12px; font-weight: 200;" fill="rgb(33, 33, 33)" stroke="none" stroke-width="1px">-1</text><text x="0" y="326.73333333333335" dx="0em" dy="0.3em" style="text-anchor: end; visibility: inherit; font-family: Roboto, sans-serif; font-size: 12px; font-weight: 200;" fill="rgb(33, 33, 33)" stroke="none" stroke-width="1px">-0.8</text><text x="0" y="301.6" dx="0em" dy="0.3em" style="text-anchor: end; visibility: inherit; font-family: Roboto, sans-serif; font-size: 12px; font-weight: 200;" fill="rgb(33, 33, 33)" stroke="none" stroke-width="1px">-0.6</text><text x="0" y="276.4666666666667" dx="0em" dy="0.3em" style="text-anchor: end; visibility: inherit; font-family: Roboto, sans-serif; font-size: 12px; font-weight: 200;" fill="rgb(33, 33, 33)" stroke="none" stroke-width="1px">-0.4</text><text x="0" y="251.33333333333337" dx="0em" dy="0.3em" style="text-anchor: end; visibility: inherit; font-family: Roboto, sans-serif; font-size: 12px; font-weight: 200;" fill="rgb(33, 33, 33)" stroke="none" stroke-width="1px">-0.2</text><text x="0" y="226.20000000000005" dx="0em" dy="0.3em" style="text-anchor: end; visibility: inherit; font-family: Roboto, sans-serif; font-size: 12px; font-weight: 200;" fill="rgb(33, 33, 33)" stroke="none" stroke-width="1px">0</text><text x="0" y="201.06666666666672" dx="0em" dy="0.3em" style="text-anchor: end; visibility: inherit; font-family: Roboto, sans-serif; font-size: 12px; font-weight: 200;" fill="rgb(33, 33, 33)" stroke="none" stroke-width="1px">0.2</text><text x="0" y="175.93333333333334" dx="0em" dy="0.3em" style="text-anchor: end; visibility: inherit; font-family: Roboto, sans-serif; font-size: 12px; font-weight: 200;" fill="rgb(33, 33, 33)" stroke="none" stroke-width="1px">0.4</text><text x="0" y="150.8" dx="0em" dy="0.3em" style="text-anchor: end; visibility: inherit; font-family: Roboto, sans-serif; font-size: 12px; font-weight: 200;" fill="rgb(33, 33, 33)" stroke="none" stroke-width="1px">0.6</text><text x="0" y="125.66666666666669" dx="0em" dy="0.3em" style="text-anchor: end; visibility: inherit; font-family: Roboto, sans-serif; font-size: 12px; font-weight: 200;" fill="rgb(33, 33, 33)" stroke="none" stroke-width="1px">0.8</text><text x="0" y="100.53333333333332" dx="0em" dy="0.3em" style="text-anchor: end; visibility: inherit; font-family: Roboto, sans-serif; font-size: 12px; font-weight: 200;" fill="rgb(33, 33, 33)" stroke="none" stroke-width="1px">1</text><text x="0" y="75.40000000000002" dx="0em" dy="0.3em" style="text-anchor: end; visibility: inherit; font-family: Roboto, sans-serif; font-size: 12px; font-weight: 200;" fill="rgb(33, 33, 33)" stroke="none" stroke-width="1px">1.2</text><text x="0" y="50.266666666666694" dx="0em" dy="0.3em" style="text-anchor: end; visibility: inherit; font-family: Roboto, sans-serif; font-size: 12px; font-weight: 200;" fill="rgb(33, 33, 33)" stroke="none" stroke-width="1px">1.4</text><text x="0" y="25.13333333333337" dx="0em" dy="0.3em" style="text-anchor: end; visibility: inherit; font-family: Roboto, sans-serif; font-size: 12px; font-weight: 200;" fill="rgb(33, 33, 33)" stroke="none" stroke-width="1px">1.6</text><text x="0" y="0" dx="0em" dy="0.3em" style="text-anchor: end; visibility: hidden; font-family: Roboto, sans-serif; font-size: 12px; font-weight: 200;" fill="rgb(33, 33, 33)" stroke="none" stroke-width="1px">1.8</text></g><line x1="50" y1="0" x2="50" y2="377" fill="rgb(0, 0, 0)" stroke="rgb(204, 204, 204)" stroke-width="1px"></line></g></g><g transform="translate(50, 0)" clip-path="url(#clip_0)"><clipPath id="clip_0"><rect width="1286" height="377"></rect></clipPath><g><g><g><line x1="0" y1="0" x2="0" y2="377" fill="rgb(0, 0, 0)" stroke="rgb(66, 66, 66)" stroke-width="1px" opacity="0.25"></line><line x1="91.86357142857142" y1="0" x2="91.86357142857142" y2="377" fill="rgb(0, 0, 0)" stroke="rgb(66, 66, 66)" stroke-width="1px" opacity="0.25"></line><line x1="183.72714285714284" y1="0" x2="183.72714285714284" y2="377" fill="rgb(0, 0, 0)" stroke="rgb(66, 66, 66)" stroke-width="1px" opacity="0.25"></line><line x1="275.5907142857142" y1="0" x2="275.5907142857142" y2="377" fill="rgb(0, 0, 0)" stroke="rgb(66, 66, 66)" stroke-width="1px" opacity="0.25"></line><line x1="367.4542857142857" y1="0" x2="367.4542857142857" y2="377" fill="rgb(0, 0, 0)" stroke="rgb(66, 66, 66)" stroke-width="1px" opacity="0.25"></line><line x1="459.3178571428571" y1="0" x2="459.3178571428571" y2="377" fill="rgb(0, 0, 0)" stroke="rgb(66, 66, 66)" stroke-width="1px" opacity="0.25"></line><line x1="551.1814285714285" y1="0" x2="551.1814285714285" y2="377" fill="rgb(0, 0, 0)" stroke="rgb(66, 66, 66)" stroke-width="1px" opacity="0.25"></line><line x1="643.045" y1="0" x2="643.045" y2="377" fill="rgb(0, 0, 0)" stroke="rgb(66, 66, 66)" stroke-width="1px" opacity="0.25"></line><line x1="734.9085714285713" y1="0" x2="734.9085714285713" y2="377" fill="rgb(0, 0, 0)" stroke="rgb(66, 66, 66)" stroke-width="1px" opacity="0.25"></line><line x1="826.7721428571429" y1="0" x2="826.7721428571429" y2="377" fill="rgb(0, 0, 0)" stroke="rgb(66, 66, 66)" stroke-width="1px" opacity="0.25"></line><line x1="918.6357142857142" y1="0" x2="918.6357142857142" y2="377" fill="rgb(0, 0, 0)" stroke="rgb(66, 66, 66)" stroke-width="1px" opacity="0.25"></line><line x1="1010.4992857142856" y1="0" x2="1010.4992857142856" y2="377" fill="rgb(0, 0, 0)" stroke="rgb(66, 66, 66)" stroke-width="1px" opacity="0.25"></line><line x1="1102.362857142857" y1="0" x2="1102.362857142857" y2="377" fill="rgb(0, 0, 0)" stroke="rgb(66, 66, 66)" stroke-width="1px" opacity="0.25"></line><line x1="1194.2264285714286" y1="0" x2="1194.2264285714286" y2="377" fill="rgb(0, 0, 0)" stroke="rgb(66, 66, 66)" stroke-width="1px" opacity="0.25"></line><line x1="1286.09" y1="0" x2="1286.09" y2="377" fill="rgb(0, 0, 0)" stroke="rgb(66, 66, 66)" stroke-width="1px" opacity="0.25"></line></g><g><line x1="0" y1="377" x2="1286.09" y2="377" fill="rgb(0, 0, 0)" stroke="rgb(66, 66, 66)" stroke-width="1px" opacity="0.25"></line><line x1="0" y1="351.8666666666667" x2="1286.09" y2="351.8666666666667" fill="rgb(0, 0, 0)" stroke="rgb(66, 66, 66)" stroke-width="1px" opacity="0.25"></line><line x1="0" y1="326.73333333333335" x2="1286.09" y2="326.73333333333335" fill="rgb(0, 0, 0)" stroke="rgb(66, 66, 66)" stroke-width="1px" opacity="0.25"></line><line x1="0" y1="301.6" x2="1286.09" y2="301.6" fill="rgb(0, 0, 0)" stroke="rgb(66, 66, 66)" stroke-width="1px" opacity="0.25"></line><line x1="0" y1="276.4666666666667" x2="1286.09" y2="276.4666666666667" fill="rgb(0, 0, 0)" stroke="rgb(66, 66, 66)" stroke-width="1px" opacity="0.25"></line><line x1="0" y1="251.33333333333337" x2="1286.09" y2="251.33333333333337" fill="rgb(0, 0, 0)" stroke="rgb(66, 66, 66)" stroke-width="1px" opacity="0.25"></line><line x1="0" y1="226.20000000000005" x2="1286.09" y2="226.20000000000005" fill="rgb(0, 0, 0)" stroke="rgb(66, 66, 66)" stroke-width="1px" opacity="0.25"></line><line x1="0" y1="201.06666666666672" x2="1286.09" y2="201.06666666666672" fill="rgb(0, 0, 0)" stroke="rgb(66, 66, 66)" stroke-width="1px" opacity="0.25"></line><line x1="0" y1="175.93333333333334" x2="1286.09" y2="175.93333333333334" fill="rgb(0, 0, 0)" stroke="rgb(66, 66, 66)" stroke-width="1px" opacity="0.25"></line><line x1="0" y1="150.8" x2="1286.09" y2="150.8" fill="rgb(0, 0, 0)" stroke="rgb(66, 66, 66)" stroke-width="1px" opacity="0.25"></line><line x1="0" y1="125.66666666666669" x2="1286.09" y2="125.66666666666669" fill="rgb(0, 0, 0)" stroke="rgb(66, 66, 66)" stroke-width="1px" opacity="0.25"></line><line x1="0" y1="100.53333333333332" x2="1286.09" y2="100.53333333333332" fill="rgb(0, 0, 0)" stroke="rgb(66, 66, 66)" stroke-width="1px" opacity="0.25"></line><line x1="0" y1="75.40000000000002" x2="1286.09" y2="75.40000000000002" fill="rgb(0, 0, 0)" stroke="rgb(66, 66, 66)" stroke-width="1px" opacity="0.25"></line><line x1="0" y1="50.266666666666694" x2="1286.09" y2="50.266666666666694" fill="rgb(0, 0, 0)" stroke="rgb(66, 66, 66)" stroke-width="1px" opacity="0.25"></line><line x1="0" y1="25.13333333333337" x2="1286.09" y2="25.13333333333337" fill="rgb(0, 0, 0)" stroke="rgb(66, 66, 66)" stroke-width="1px" opacity="0.25"></line><line x1="0" y1="0" x2="1286.09" y2="0" fill="rgb(0, 0, 0)" stroke="rgb(66, 66, 66)" stroke-width="1px" opacity="0.25"></line></g></g></g><g><g><line x1="0" y1="226.20000000000005" x2="1286.09" y2="226.20000000000005" fill="rgb(0, 0, 0)" stroke="rgb(153, 153, 153)" stroke-width="1.5px"></line></g></g><g><g><line x1="91.86357142857142" y1="0" x2="91.86357142857142" y2="377" fill="rgb(0, 0, 0)" stroke="rgb(153, 153, 153)" stroke-width="1.5px"></line></g></g><g><g><g><g><g><path stroke="rgb(238, 51, 119)" stroke-width="2px" d="M93.70084285714285,351.8666666666667L95.53811428571429,342.1644590218862L97.37538571428571,323.687692744959L98.29402142857143,314.42558036870236L100.13129285714285,253.66568494666345L101.96856428571427,221.4785905497892L102.88719999999999,196.73027462488682L103.8058357142857,176.42982806694795L104.72447142857143,169.5133545633917L105.64310714285713,151.86798399725262L106.56174285714285,144.84196757570064L107.48037857142857,139.46047154494602L108.39901428571427,147.8739367341573L109.31765,149.5026093950565L110.23628571428571,145.31723243418205L111.15492142857141,135.10294041434594L112.07355714285714,144.44647079617542L112.99219285714285,134.81707964037145L113.91082857142855,136.76052945702097L114.82946428571428,118.15624146252163L115.7481,116.21890143862062L117.58537142857142,116.33450637893762L120.34127857142856,132.8275008824743L121.25991428571429,130.38204349882156L122.17854999999999,104.27642613284449L123.0971857142857,124.37818163629528L124.01582142857143,129.26101312583324L125.85309285714284,116.88805963746339L128.609,119.87950417125029L129.5276357142857,118.73338643916989L131.36490714285713,130.6025719790404L132.28354285714283,129.69946533577914L133.20217857142856,112.35774230959967L134.1208142857143,102.77768657258869L135.03945,118.88190757174249L135.95808571428572,134.71226970632657L137.7953571428571,128.22164706989534L138.71399285714284,134.69975970649764L140.5512642857143,125.7998561140145L141.4699,137.58356969478834L142.3885357142857,124.04144007305817L143.30717142857142,125.7139044559531L144.22580714285712,131.90442163546012L145.14444285714285,134.9147170445519L146.98171428571428,126.6077199137237L147.90035,127.71457853141536L148.8189857142857,130.58687211895668L149.7376214285714,121.07879053705256L150.65625714285713,129.99696993017284L151.57489285714286,133.91984862480206L152.49352857142856,124.39914030543505L153.41216428571428,120.68734004205302L154.33079999999998,125.39841470861765L155.2494357142857,109.27928232277337L156.1680714285714,113.75973823026047L158.00534285714284,105.43584355804138L158.92397857142856,118.9983687036832L159.8426142857143,118.7334648676872L160.76125,136.2059378696392L162.59852142857142,131.73463520325657L163.51715714285714,118.84209308853173L164.43579285714284,110.65192355293277L165.35442857142854,103.19657897777294L167.1917,102.95532345350742L168.11033571428572,104.58652730212309L169.94760714285712,116.17090034619392L170.86624285714285,103.97526715359342L171.78487857142855,100.04256375806283L172.70351428571428,101.45499946063805L173.62215,110.60653493912643L174.5407857142857,112.64391972369927L176.37805714285713,123.1153101675529L177.29669285714283,115.33918490208104L178.21532857142856,113.53706393438729L179.13396428571428,120.90223836063232L180.97123571428568,123.8792652366095L181.8898714285714,131.29644703214566L183.72714285714284,138.53935003367184L184.64577857142856,140.51138639978836L185.5644142857143,138.48312880197528L186.48304999999996,127.3424959007861L187.4016857142857,114.75710358841985L188.32032142857142,108.1857215131746L189.23895714285712,114.69936884515046L190.15759285714284,115.76509878162084L191.9948642857143,108.37239115589978L192.91349999999997,106.94072227053316L193.8321357142857,117.33714169565326L194.75077142857143,116.38392347755128L196.58804285714285,106.17701798754194L197.50667857142858,106.39167532251629L198.42531428571425,116.23419747586854L199.34394999999998,124.61496392867453L200.2625857142857,121.35942678917336L201.1812214285714,130.05479460201L202.09985714285713,119.07025282804965L203.01849285714286,124.22215169682978L203.93712857142853,119.07995851128227L205.77439999999999,117.8416349336838L206.6930357142857,107.66029004605623L207.6116714285714,103.57344326070155L208.53030714285714,112.89718317284911L209.44894285714287,115.88848502692417L211.28621428571427,115.47858719859619L212.20485,125.85709993223806L214.96075714285715,126.89796299724057L215.87939285714282,118.14734837087954L217.71666428571427,107.69383386854113L218.6353,112.40952888061871L220.47257142857143,117.29349490640725L222.30984285714283,107.34641662501195L223.22847857142855,104.62118330834049L224.14711428571428,108.01271118345498L225.06574999999998,113.26139636689014L225.9843857142857,107.75814978671222L226.90302142857144,101.40155467902912L228.74029285714283,99.37871218312958L229.65892857142856,93.10841949814063L230.5775642857143,106.21279295782348L231.4962,103.13025719304942L233.3334714285714,117.59037673779362L234.2521071428571,119.42001706624852L235.17074285714284,109.21972764570408L237.00801428571427,108.62932248416875L237.92665,98.77689299764238L238.8452857142857,105.65979562549987L240.68255714285712,97.64536636163314L241.60119285714285,107.4672184738886L243.43846428571428,101.1661805093311L244.35709999999997,103.15708968599779L246.1943714285714,111.32314290022929L247.11300714285713,103.59931058615095L248.03164285714286,114.32155430155782L249.86891428571425,123.16816982013654L250.78754999999998,106.44643963088198L251.70618571428568,110.16184246645139L253.54345714285714,116.78266003671746L254.46209285714286,125.36292995458919L255.38072857142853,117.1644255692526L256.29936428571426,117.51636089810316L258.13663571428566,116.39841926929509L259.0552714285714,112.48464363597125L259.9739071428571,103.66483123252169L260.8925428571428,106.53245173265165L261.81117857142857,99.64470827879288L262.72981428571427,98.7434928323931L263.64844999999997,107.70630403276921L264.56708571428567,123.37809822986509L265.4857214285714,124.84331727125237L267.3229928571428,115.98598932960425L268.2416285714286,131.1870166174896L270.9975357142857,116.36961343640058L274.6720785714286,122.60176806184036L275.5907142857142,125.74264742532797L277.4279857142857,127.82021249770777L278.34662142857144,115.11022359275616L279.26525714285714,114.04613446559782L281.1025285714286,112.60943490763273L282.02116428571424,112.5456612545238L282.9398,114.79570089884514L283.8584357142857,113.42408803249153L284.7770714285714,116.09620110955683L287.53297857142854,114.89772186418485L288.45161428571424,122.31704653028713L289.37025,125.35947600319426L290.2888857142857,120.62901872862047L292.12615714285715,120.9685233469923L293.04479285714285,113.61849007503905L293.96342857142855,111.52609404502343L294.88206428571425,114.70888498650807L295.8007,93.86382133181982L296.7193357142857,103.46496018896154L297.6379714285714,110.67008822319698L299.4752428571428,111.88527970686232L300.39387857142856,121.12729569658443L301.31251428571426,112.88971075128397L303.1497857142857,113.4850118250304L304.0684214285714,118.43874835395731L304.9870571428571,110.01991687749181L305.9056928571428,110.68442198833436L306.82432857142857,118.9911830544508L307.74296428571427,99.26184349457644L308.66159999999996,105.30829147100583L310.4988714285714,125.05164025863091L311.4175071428571,112.21098477506686L313.2547785714286,132.6732575317068L314.1734142857143,131.78554110724784L315.09205,126.01680213887924L316.9293214285714,126.29563584017417L317.8479571428571,125.6573824259897L318.7665928571428,127.96841877221622L319.6852285714286,122.3506683567339L320.6038642857143,108.85707036688969L321.5225,100.91979617775506L322.4411357142857,94.15117721379418L323.35977142857143,95.87999692809947L324.27840714285713,101.79509406121001L325.19704285714283,96.09038997668878L326.11567857142853,106.2453460958333L327.0343142857143,104.39387380759307L329.79022142857144,115.41632428455588L330.7088571428571,117.57065604222753L331.62749285714284,101.4960772050993L332.54612857142854,98.46536372901461L334.3834,99.7185408806888L335.3020357142857,108.1382427662266L336.22067142857145,108.18282891092615L338.05794285714285,102.43017182495944L339.89521428571425,110.58971648144774L341.7324857142857,108.89432382699682L342.6511214285714,93.46659613996843L343.5697571428571,90.84773466279168L344.4883928571428,109.02864144299463L345.40702857142855,103.89718693209116L347.2443,96.26831215925466L348.1629357142857,102.46241672301761L349.0815714285714,108.93259264785729L350.0002071428571,110.51715131536336L350.9188428571428,118.64147998135415L351.83747857142856,128.28467965547915L352.75611428571426,128.01080714796788L353.67475,110.62224197348839L358.26792857142857,118.55493177231682L360.1052,79.35841415359496L361.02383571428567,91.12455575565842L362.8611071428571,89.0236219428004L363.7797428571428,79.26560259314502L364.6983785714286,79.97269220303772L365.6170142857143,71.8823310849147L366.5356499999999,67.02811441404087L367.4542857142857,32.30254215230027L368.3729214285714,59.594858624713495L369.29155714285713,70.13572298656511L370.21019285714283,61.8157550015287L371.1288285714286,42.50278541236541L372.0474642857143,54.691612873014336L374.8033714285714,53.96163315069862L375.72200714285714,41.51637350296289L376.64064285714284,65.1231574351111L377.5592785714286,66.50756647276002L378.47791428571423,77.28024151456626L380.3151857142857,177.06147884129842L381.2338214285714,246.98355397144576L383.07109285714284,288.9367990495341L383.9897285714286,314.1087460963871L384.90836428571424,329.211914324499L385.82699999999994,338.273815261366L386.7456357142857,343.7109558234863L387.6642714285714,346.97324016075845L388.58290714285715,348.9306107631217L389.50154285714285,350.1050331245397L390.4201785714285,350.8096865413905L391.33881428571425,351.232478591501L392.25744999999995,351.48615382156726L393.1760857142857,351.638358959607L394.0947214285714,351.7296820424309L395.93199285714286,351.7844758921252L396.8506285714285,351.8173522019418L398.68789999999996,351.8370779878317L400.5251714285714,351.8489134593657L402.3624428571428,351.8560147422861L404.19971428571426,351.86027551203836L405.11834999999996,351.8628319738897L406.0369857142857,351.86436585100046L406.9556214285714,351.86528617726697L407.87425714285706,351.86583837302686L408.7928928571428,351.86616969048276L409.7115285714285,351.86636848095634L410.6301642857143,351.8664877552404L411.54879999999997,351.86655931981096L412.4674357142857,351.86660225855326L413.3860714285714,351.8666280217986L414.30470714285707,351.86664347974585L415.2233428571428,351.8666527545142L416.1419785714285,351.8666583193752L417.0606142857143,351.8666616582918L417.97925,351.8666636616417L418.89788571428574,351.8666648636517L419.8165214285714,351.8666655848577L420.7351571428571,351.8666660175813L421.65379285714283,351.8666662772155L422.57242857142853,351.86666643299594L423.4910642857143,351.86666652646426L424.4097,351.86666658254524L425.32833571428574,351.86666661619375L426.2469714285714,351.86666663638294L427.1656071428571,351.86666664849645L428.08424285714284,351.8666666557645L429.00287857142854,351.86666666012536L429.9215142857143,351.86666666274186L430.84015,351.8666666643118L432.6774214285714,351.8666666652538L433.5960571428571,351.8666666658189L435.43332857142855,351.866666666158L436.3519642857143,351.8666666663615L437.2706,351.8666666664836L438.18923571428564,351.8666666665568L439.1078714285714,351.86666666660074L440.0265071428571,351.8666666666271L440.94514285714286,351.8666666666429L442.7824142857143,351.86666666665246L443.70104999999995,351.86666666665815L445.5383214285714,351.8666666666615L446.4569571428571,351.86666666666355L447.37559285714286,351.86666666666486L448.29422857142856,351.86666666666554L449.21286428571426,351.866666666666L451.05013571428566,351.8666666666663L451.9687714285714,351.86666666666645L452.8874071428571,351.86666666666656L453.80604285714287,351.86666666666656L456.56194999999997,351.8666666666666L458.3992214285714,351.8666666666666L459.3178571428571,351.8666666666667L461.1551285714286,351.8666666666667L462.0737642857142,351.8666666666667L462.9924,351.8666666666667L464.82967142857143,351.8666666666667L465.74830714285713,351.8666666666667L467.5855785714285,351.8666666666667L469.42285,351.8666666666667L470.3414857142857,351.8666666666667L471.2601214285714,351.8666666666667L473.09739285714284,351.8666666666667L474.01602857142854,351.8666666666667L474.93466428571423,351.8666666666667L477.6905714285714,351.8666666666667L478.60920714285714,351.8666666666667L479.5278428571428,351.8666666666667L480.44647857142854,351.8666666666667L481.36511428571424,351.8666666666667L482.28374999999994,351.8666666666667L484.1210214285714,351.8666666666667L485.9582928571428,351.8666666666667L487.79556428571425,351.8666666666667L489.6328357142857,351.8666666666667L492.3887428571428,351.8666666666667L493.30737857142856,351.8666666666667L495.14464999999996,351.8666666666667L496.0632857142857,351.8666666666667L496.9819214285714,351.8666666666667L497.9005571428571,351.8666666666667L498.8191928571428,351.8666666666667L500.65646428571426,351.8666666666667L501.57509999999996,351.8666666666667L502.4937357142857,351.8666666666667L503.41237142857136,351.8666666666667L504.3310071428571,351.8666666666667L505.2496428571428,351.8666666666667L506.1682785714285,351.8666666666667L507.0869142857143,351.8666666666667L508.00554999999997,351.8666666666667L508.9241857142857,351.8666666666667L509.84282142857137,351.8666666666667L510.76145714285707,351.8666666666667L512.5987285714285,351.8666666666667L513.5173642857143,351.8666666666667L514.436,351.8666666666667L515.3546357142857,351.8666666666667L516.2732714285713,351.8666666666667L517.1919071428571,351.8666666666667L518.1105428571428,351.8666666666667L519.0291785714286,351.8666666666667L519.9478142857142,351.8666666666667L520.86645,351.8666666666667L521.7850857142856,351.8666666666667L522.7037214285714,351.8666666666667L523.6223571428571,351.8666666666667L524.5409928571428,351.8666666666667L525.4596285714285,351.8666666666667L526.3782642857143,351.8666666666667L527.2968999999999,351.8666666666667L528.2155357142857,351.8666666666667L529.1341714285713,351.8666666666667L530.9714428571428,351.8666666666667L531.8900785714286,351.8666666666667L535.5646214285714,351.8666666666667L537.4018928571428,351.8666666666667L538.3205285714286,351.8666666666667L539.2391642857142,351.8666666666667L540.1578,351.8666666666667L541.0764357142857,351.8666666666667L541.9950714285714,351.8666666666667L543.8323428571429,351.8666666666667L544.7509785714286,351.8666666666667L545.6696142857143,351.8666666666667L548.4255214285714,351.8666666666667L549.3441571428572,351.8666666666667L551.1814285714285,351.8666666666667L554.8559714285714,351.8666666666667L555.7746071428571,351.8666666666667L556.6932428571429,351.8666666666667L557.6118785714285,351.8666666666667L558.5305142857143,351.8666666666667L559.4491499999999,351.8666666666667L560.3677857142857,351.8666666666667L561.2864214285714,351.8666666666667L562.2050571428572,351.8666666666667L563.1236928571428,351.8666666666667L564.9609642857142,351.8666666666667L565.8796,351.8666666666667L566.7982357142857,351.8666666666667L567.7168714285714,351.8666666666667L568.635507142857,351.8666666666667L569.5541428571428,351.8666666666667L570.4727785714285,351.8666666666667L573.2286857142857,351.8666666666667L574.1473214285714,351.8666666666667L575.0659571428571,351.8666666666667L580.5777714285714,351.8666666666667L582.4150428571428,351.8666666666667L583.3336785714285,351.8666666666667L584.2523142857143,351.8666666666667L585.17095,351.8666666666667L586.0895857142857,351.8666666666667L587.0082214285713,351.8666666666667L587.9268571428571,351.8666666666667L588.8454928571429,351.8666666666667L589.7641285714285,351.8666666666667L590.6827642857143,351.8666666666667L591.6014,351.8666666666667L592.5200357142857,351.8666666666667L593.4386714285714,351.8666666666667L594.357307142857,351.8666666666667L595.2759428571428,351.8666666666667L596.1945785714286,351.8666666666667L597.1132142857143,351.8666666666667L598.9504857142856,351.8666666666667L599.8691214285714,351.8666666666667L600.7877571428571,351.8666666666667L602.6250285714285,351.8666666666667L604.4622999999999,351.8666666666667L605.3809357142857,351.8666666666667L606.2995714285714,351.8666666666667L607.2182071428571,351.8666666666667L608.1368428571428,351.8666666666667L609.9741142857142,351.8666666666667L610.89275,351.8666666666667L611.8113857142856,351.8666666666667L612.7300214285714,351.8666666666667L613.6486571428571,351.8666666666667L614.5672928571429,351.8666666666667L615.4859285714285,351.8666666666667L616.4045642857142,351.8666666666667L617.3231999999999,351.8666666666667L618.2418357142857,351.8666666666667L619.1604714285714,351.8666666666667L620.0791071428571,351.8666666666667L621.9163785714286,351.8666666666667L622.8350142857142,351.8666666666667L623.75365,351.8666666666667L624.6722857142856,351.8666666666667L625.5909214285714,351.8666666666667L626.5095571428571,351.8666666666667L627.4281928571428,351.8666666666667L628.3468285714285,351.8666666666667L629.2654642857142,351.8666666666667L630.1841,351.8666666666667L631.1027357142857,351.8666666666667L632.0213714285713,351.8666666666667L632.9400071428571,351.8666666666667L633.8586428571429,351.8666666666667L635.6959142857143,351.8666666666667L636.61455,351.8666666666667L637.5331857142857,351.8666666666667L639.3704571428572,351.8666666666667L640.2890928571428,351.8666666666667L641.2077285714286,351.8666666666667L642.1263642857142,351.8666666666667L643.9636357142856,351.8666666666667L644.8822714285714,351.8666666666667L645.8009071428571,351.8666666666667L646.7195428571429,351.8666666666667L647.6381785714285,351.8666666666667L648.5568142857143,351.8666666666667L649.4754499999999,351.8666666666667L651.3127214285714,351.8666666666667L653.1499928571428,351.8666666666667L654.0686285714286,351.8666666666667L654.9872642857142,351.8666666666667L657.7431714285714,351.8666666666667L661.4177142857142,351.8666666666667L662.3363499999999,351.8666666666667L663.2549857142857,351.8666666666667L664.1736214285714,351.8666666666667L665.0922571428571,351.8666666666667L666.0108928571428,351.8666666666667L666.9295285714285,351.8666666666667L667.8481642857142,351.8666666666667L670.6040714285714,351.8666666666667L671.522707142857,351.8666666666667L672.4413428571429,351.8666666666667L673.3599785714285,351.8666666666667L675.1972499999999,351.8666666666667L676.1158857142857,351.8666666666667L677.0345214285715,351.8666666666667L678.8717928571427,351.8666666666667L679.7904285714285,351.8666666666667L680.7090642857142,351.8666666666667L681.6277,351.8666666666667L682.5463357142856,351.8666666666667L683.4649714285714,351.8666666666667L684.383607142857,351.8666666666667L685.3022428571428,351.8666666666667L686.2208785714286,351.8666666666667L687.1395142857142,351.8666666666667L688.05815,351.8666666666667L688.9767857142856,351.8666666666667L689.8954214285715,351.8666666666667L690.8140571428571,351.8666666666667L691.7326928571428,351.8666666666667L692.6513285714285,351.8666666666667L695.4072357142857,351.8666666666667L696.3258714285714,351.8666666666667L698.1631428571428,351.8666666666667L699.0817785714286,351.8666666666667L700.0004142857142,351.8666666666667L700.91905,351.8666666666667L701.8376857142856,351.8666666666667L702.7563214285714,351.8666666666667L703.6749571428571,351.8666666666667L704.5935928571428,351.8666666666667L705.5122285714285,351.8666666666667L706.4308642857142,351.8666666666667L707.3495,351.8666666666667L709.1867714285713,351.8666666666667L710.1054071428571,351.8666666666667L711.0240428571427,351.8666666666667L711.9426785714286,351.8666666666667L712.8613142857142,351.8666666666667L713.77995,351.8666666666667L714.6985857142856,351.8666666666667L715.6172214285713,351.8666666666667L716.5358571428571,351.8666666666667L717.4544928571428,351.8666666666667L718.3731285714285,351.8666666666667L719.2917642857142,351.8666666666667L720.2104,351.8666666666667L721.1290357142857,351.8666666666667L722.0476714285713,351.8666666666667L722.9663071428571,351.8666666666667L723.8849428571427,351.8666666666667L724.8035785714286,351.8666666666667L725.7222142857142,351.8666666666667L726.6408499999999,351.8666666666667L728.4781214285713,351.8666666666667L730.3153928571428,351.8666666666667L732.1526642857142,351.8666666666667L734.9085714285713,351.8666666666667L735.8272071428571,351.8666666666667L736.7458428571427,351.8666666666667L737.6644785714286,351.8666666666667L738.5831142857143,351.8666666666667L739.5017499999999,351.8666666666667L740.4203857142857,351.8666666666667L741.3390214285713,351.8666666666667L742.2576571428572,351.8666666666667L743.1762928571428,351.8666666666667L744.0949285714286,351.8666666666667L745.0135642857142,351.8666666666667L745.9321999999999,351.8666666666667L748.6881071428571,351.8666666666667L749.6067428571428,351.8666666666667L750.5253785714284,351.8666666666667L752.3626499999999,351.8666666666667L753.2812857142857,351.8666666666667L754.1999214285713,351.8666666666667L755.1185571428572,351.8666666666667L756.0371928571428,351.8666666666667L756.9558285714285,351.8666666666667L757.8744642857142,351.8666666666667L758.7930999999999,351.8666666666667L759.7117357142857,351.8666666666667L762.4676428571428,351.8666666666667L763.3862785714284,351.8666666666667L764.3049142857143,351.8666666666667L765.2235499999999,351.8666666666667L767.0608214285713,351.8666666666667L767.9794571428572,351.8666666666667L768.8980928571428,351.8666666666667L769.8167285714285,351.8666666666667L770.7353642857142,351.8666666666667L771.6539999999999,351.8666666666667L772.5726357142858,351.8666666666667L773.4912714285714,351.8666666666667L774.409907142857,351.8666666666667L775.3285428571428,351.8666666666667L776.2471785714284,351.8666666666667L777.1658142857143,351.8666666666667L778.08445,351.8666666666667L779.0030857142857,351.8666666666667L780.840357142857,351.8666666666667L781.7589928571429,351.8666666666667L782.6776285714285,351.8666666666667L783.5962642857143,351.8666666666667L784.5148999999999,351.8666666666667L785.4335357142858,351.8666666666667L786.3521714285714,351.8666666666667L787.270807142857,351.8666666666667L790.0267142857143,351.8666666666667L790.94535,351.8666666666667L792.7826214285714,351.8666666666667L793.701257142857,351.8666666666667L794.6198928571429,351.8666666666667L795.5385285714285,351.8666666666667L796.4571642857143,351.8666666666667L797.3757999999999,351.8666666666667L799.2130714285714,351.8666666666667L800.1317071428571,351.8666666666667L801.0503428571428,351.8666666666667L801.9689785714285,351.8666666666667L802.8876142857143,351.8666666666667L803.80625,351.8666666666667L804.7248857142856,351.8666666666667L805.6435214285714,351.8666666666667L807.4807928571429,351.8666666666667L808.3994285714285,351.8666666666667L809.3180642857143,351.8666666666667L811.1553357142856,351.8666666666667L812.0739714285714,351.8666666666667L812.9926071428571,351.8666666666667L813.9112428571428,351.8666666666667L814.8298785714285,351.8666666666667L815.7485142857141,351.8666666666667L817.5857857142856,351.8666666666667L818.5044214285714,351.8666666666667L819.423057142857,351.8666666666667L820.3416928571429,351.8666666666667L821.2603285714285,351.8666666666667L822.1789642857142,351.8666666666667L823.0975999999999,351.8666666666667L824.0162357142856,351.8666666666667L824.9348714285715,351.8666666666667L825.8535071428571,351.8666666666667L826.7721428571429,351.8666666666667L827.6907785714285,351.8666666666667L829.52805,351.8666666666667L831.3653214285714,351.8666666666667L832.283957142857,351.8666666666667L833.2025928571429,351.8666666666667L834.1212285714286,351.8666666666667L835.0398642857142,351.8666666666667L835.9585,351.8666666666667L837.7957714285715,351.8666666666667L838.7144071428571,351.8666666666667L839.6330428571428,351.8666666666667L840.5516785714285,351.8666666666667L841.4703142857142,351.8666666666667L842.38895,351.8666666666667L844.2262214285714,351.8666666666667L846.0634928571427,351.8666666666667L846.9821285714286,351.8666666666667L848.8194,351.8666666666667L849.7380357142856,351.8666666666667L850.6566714285715,351.8666666666667L853.4125785714285,351.8666666666667L854.3312142857142,351.8666666666667L855.24985,351.8666666666667L856.1684857142857,351.8666666666667L857.0871214285714,351.8666666666667L858.0057571428571,351.8666666666667L858.9243928571427,351.8666666666667L859.8430285714286,351.8666666666667L860.7616642857142,351.8666666666667L861.6803,351.8666666666667L862.5989357142856,351.8666666666667L863.5175714285713,351.8666666666667L864.4362071428571,351.8666666666667L866.2734785714285,351.8666666666667L867.1921142857142,351.8666666666667L869.0293857142857,351.8666666666667L869.9480214285713,351.8666666666667L870.8666571428571,351.8666666666667L871.7852928571427,351.8666666666667L873.6225642857142,351.8666666666667L874.5412,351.8666666666667L875.4598357142856,351.8666666666667L876.3784714285713,351.8666666666667L878.2157428571428,351.8666666666667L880.0530142857142,351.8666666666667L881.8902857142857,351.8666666666667L882.8089214285714,351.8666666666667L883.7275571428571,351.8666666666667L884.6461928571428,351.8666666666667L885.5648285714286,351.8666666666667L889.2393714285713,351.8666666666667L890.1580071428572,351.8666666666667L891.0766428571428,351.8666666666667L891.9952785714286,351.8666666666667L892.9139142857142,351.8666666666667L894.7511857142857,351.8666666666667L895.6698214285714,351.8666666666667L896.5884571428571,351.8666666666667L897.5070928571428,351.8666666666667L898.4257285714285,351.8666666666667L899.3443642857143,351.8666666666667L900.2629999999999,351.8666666666667L901.1816357142857,351.8666666666667L902.1002714285713,351.8666666666667L903.0189071428572,351.8666666666667L904.8561785714286,351.8666666666667L905.7748142857142,351.8666666666667L906.6934499999999,351.8666666666667L907.6120857142857,351.8666666666667L908.5307214285714,351.8666666666667L909.4493571428571,351.8666666666667L910.3679928571428,351.8666666666667L911.2866285714284,351.8666666666667L912.2052642857143,351.8666666666667L913.1238999999999,351.8666666666667L914.0425357142857,351.8666666666667L914.9611714285713,351.8666666666667L915.8798071428571,351.8666666666667L916.7984428571428,351.8666666666667L917.7170785714285,351.8666666666667L918.6357142857142,351.8666666666667L919.5543499999999,351.8666666666667L921.3916214285714,351.8666666666667L922.3102571428572,351.8666666666667L923.2288928571428,351.8666666666667L924.1475285714284,351.8666666666667L925.0661642857143,351.8666666666667L925.9848,351.8666666666667L926.9034357142857,351.8666666666667L927.8220714285713,351.8666666666667L928.7407071428571,351.8666666666667L929.6593428571429,351.8666666666667L930.5779785714285,351.8666666666667L931.4966142857143,351.8666666666667L933.3338857142857,351.8666666666667L934.2525214285714,351.8666666666667L935.171157142857,351.8666666666667L936.0897928571428,351.8666666666667L937.9270642857142,351.8666666666667L938.8457,351.8666666666667L939.7643357142857,351.8666666666667L940.6829714285714,351.8666666666667L941.601607142857,351.8666666666667L942.5202428571428,351.8666666666667L944.3575142857143,351.8666666666667L945.2761499999999,351.8666666666667L947.1134214285714,351.8666666666667L948.0320571428571,351.8666666666667L948.9506928571428,351.8666666666667L949.8693285714285,351.8666666666667L950.7879642857142,351.8666666666667L951.7066,351.8666666666667L953.5438714285714,351.8666666666667L955.3811428571428,351.8666666666667L958.1370499999999,351.8666666666667L959.0556857142856,351.8666666666667L959.9743214285713,351.8666666666667L960.8929571428571,351.8666666666667L962.7302285714285,351.8666666666667L963.6488642857142,351.8666666666667L964.5674999999999,351.8666666666667L966.4047714285714,351.8666666666667L967.323407142857,351.8666666666667L968.2420428571428,351.8666666666667L969.1606785714285,351.8666666666667L970.99795,351.8666666666667L971.9165857142856,351.8666666666667L972.8352214285713,351.8666666666667L973.7538571428571,351.8666666666667L974.6724928571429,351.8666666666667L975.5911285714285,351.8666666666667L976.5097642857141,351.8666666666667L977.4283999999999,351.8666666666667L978.3470357142857,351.8666666666667L979.2656714285714,351.8666666666667L980.184307142857,351.8666666666667L981.1029428571428,351.8666666666667L982.9402142857142,351.8666666666667L984.7774857142856,351.8666666666667L985.6961214285714,351.8666666666667L987.5333928571429,351.8666666666667L988.4520285714285,351.8666666666667L989.3706642857142,351.8666666666667L990.2892999999999,351.8666666666667L991.2079357142857,351.8666666666667L992.1265714285714,351.8666666666667L993.0452071428571,351.8666666666667L993.9638428571428,351.8666666666667L994.8824785714285,351.8666666666667L995.8011142857142,351.8666666666667L996.71975,351.8666666666667L997.6383857142856,351.8666666666667L999.475657142857,351.8666666666667L1000.3942928571428,351.8666666666667L1001.3129285714285,351.8666666666667L1002.2315642857142,351.8666666666667L1003.1501999999999,351.8666666666667L1004.0688357142856,351.8666666666667L1005.9061071428571,351.8666666666667L1007.7433785714285,351.8666666666667L1008.6620142857142,351.8666666666667L1010.4992857142856,351.8666666666667L1011.4179214285714,351.8666666666667L1013.2551928571428,351.8666666666667L1014.1738285714285,351.8666666666667L1015.0924642857142,351.8666666666667L1016.0110999999999,351.8666666666667L1017.8483714285715,351.8666666666667L1018.7670071428571,351.8666666666667L1019.6856428571427,351.8666666666667L1021.5229142857141,351.8666666666667L1022.44155,351.8666666666667L1023.3601857142856,351.8666666666667L1024.2788214285713,351.8666666666667L1026.1160928571428,351.8666666666667L1027.0347285714286,351.8666666666667L1028.872,351.8666666666667L1030.7092714285714,351.8666666666667L1031.627907142857,351.8666666666667L1032.5465428571426,351.8666666666667L1033.4651785714286,351.8666666666667L1034.3838142857142,351.8666666666667L1035.30245,351.8666666666667L1036.2210857142857,351.8666666666667L1038.0583571428572,351.8666666666667L1039.8956285714285,351.8666666666667L1040.8142642857142,351.8666666666667L1041.7329,351.8666666666667L1042.6515357142857,351.8666666666667L1043.5701714285713,351.8666666666667L1044.488807142857,351.8666666666667L1045.4074428571428,351.8666666666667L1046.3260785714285,351.8666666666667L1047.2447142857143,351.8666666666667L1048.1633499999998,351.8666666666667L1050.0006214285713,351.8666666666667L1050.919257142857,351.8666666666667L1051.8378928571428,351.8666666666667L1052.7565285714286,351.8666666666667L1055.5124357142856,351.8666666666667L1056.4310714285714,351.8666666666667L1057.3497071428571,351.8666666666667L1058.2683428571427,351.8666666666667L1059.1869785714287,351.8666666666667L1061.02425,351.8666666666667L1061.9428857142857,351.8666666666667L1062.8615214285712,351.8666666666667L1063.7801571428572,351.8666666666667L1064.6987928571427,351.8666666666667L1069.2919714285713,351.8666666666667L1070.210607142857,351.8666666666667L1071.1292428571428,351.8666666666667L1072.0478785714283,351.8666666666667L1072.9665142857143,351.8666666666667L1073.8851499999998,351.8666666666667L1074.8037857142856,351.8666666666667L1075.7224214285714,351.8666666666667L1076.641057142857,351.8666666666667L1077.5596928571429,351.8666666666667L1078.4783285714284,351.8666666666667L1079.3969642857141,351.8666666666667L1080.3156,351.8666666666667L1081.2342357142857,351.8666666666667L1082.1528714285714,351.8666666666667L1083.0715071428572,351.8666666666667L1083.9901428571427,351.8666666666667L1084.9087785714285,351.8666666666667L1085.8274142857142,351.8666666666667L1086.74605,351.8666666666667L1087.6646857142857,351.8666666666667L1088.5833214285713,351.8666666666667L1089.5019571428572,351.8666666666667L1090.4205928571428,351.8666666666667L1092.2578642857143,351.8666666666667L1094.0951357142858,351.8666666666667L1095.0137714285713,351.8666666666667L1095.932407142857,351.8666666666667L1096.8510428571428,351.8666666666667L1097.7696785714284,351.8666666666667L1099.6069499999999,351.8666666666667L1101.4442214285714,351.8666666666667L1102.362857142857,351.8666666666667L1103.281492857143,351.8666666666667L1104.2001285714284,351.8666666666667L1106.0374,351.8666666666667L1106.9560357142857,351.8666666666667L1107.8746714285714,351.8666666666667L1108.793307142857,351.8666666666667L1109.7119428571427,351.8666666666667L1112.46785,351.8666666666667L1113.3864857142858,351.8666666666667L1116.1423928571428,351.8666666666667L1117.0610285714286,351.8666666666667L1117.9796642857143,351.8666666666667L1120.7355714285713,351.8666666666667L1121.654207142857,351.8666666666667L1123.4914785714284,351.8666666666667L1124.4101142857144,351.8666666666667L1125.32875,351.8666666666667L1126.2473857142857,351.8666666666667L1127.1660214285714,351.8666666666667L1128.084657142857,351.8666666666667L1129.003292857143,351.8666666666667L1129.9219285714285,351.8666666666667L1130.8405642857142,351.8666666666667L1131.7592,351.8666666666667L1133.5964714285715,351.8666666666667L1134.515107142857,351.8666666666667L1135.4337428571428,351.8666666666667L1137.271014285714,351.8666666666667L1138.18965,351.8666666666667L1139.1082857142856,351.8666666666667L1140.0269214285713,351.8666666666667L1140.945557142857,351.8666666666667L1141.8641928571428,351.8666666666667L1142.7828285714286,351.8666666666667L1143.701464285714,351.8666666666667L1144.6200999999999,351.8666666666667L1145.5387357142856,351.8666666666667L1146.4573714285714,351.8666666666667L1148.294642857143,351.8666666666667L1149.2132785714284,351.8666666666667L1150.1319142857142,351.8666666666667L1151.05055,351.8666666666667L1151.9691857142857,351.8666666666667L1152.8878214285714,351.8666666666667L1153.806457142857,351.8666666666667L1154.725092857143,351.8666666666667L1155.6437285714285,351.8666666666667L1156.5623642857142,351.8666666666667L1157.481,351.8666666666667L1158.3996357142855,351.8666666666667L1159.3182714285715,351.8666666666667L1160.236907142857,351.8666666666667L1162.0741785714285,351.8666666666667L1162.992814285714,351.8666666666667L1163.91145,351.8666666666667L1164.8300857142856,351.8666666666667L1165.7487214285713,351.8666666666667L1166.667357142857,351.8666666666667L1167.5859928571426,351.8666666666667L1171.2605357142857,351.8666666666667L1173.0978071428572,351.8666666666667L1174.0164428571427,351.8666666666667L1175.8537142857142,351.8666666666667L1176.77235,351.8666666666667L1177.6909857142857,351.8666666666667L1178.6096214285715,351.8666666666667L1179.528257142857,351.8666666666667L1181.3655285714285,351.8666666666667L1182.2841642857143,351.8666666666667L1183.2028,351.8666666666667L1184.1214357142856,351.8666666666667L1185.0400714285713,351.8666666666667L1185.958707142857,351.8666666666667L1186.8773428571428,351.8666666666667L1187.7959785714286,351.8666666666667L1188.714614285714,351.8666666666667L1189.63325,351.8666666666667L1190.5518857142856,351.8666666666667L1191.4705214285714,351.8666666666667L1192.3891571428571,351.8666666666667L1193.3077928571427,351.8666666666667L1194.2264285714286,351.8666666666667L1195.1450642857142,351.8666666666667L1196.0637,351.8666666666667L1196.9823357142857,351.8666666666667L1197.9009714285712,351.8666666666667L1198.8196071428572,351.8666666666667L1200.6568785714285,351.8666666666667L1201.5755142857142,351.8666666666667L1202.49415,351.8666666666667L1204.3314214285713,351.8666666666667L1205.250057142857,351.8666666666667L1206.1686928571428,351.8666666666667L1207.0873285714285,351.8666666666667L1208.0059642857143,351.8666666666667L1208.9245999999998,351.8666666666667L1210.7618714285713,351.8666666666667L1212.5991428571429,351.8666666666667L1214.4364142857141,351.8666666666667L1215.35505,351.8666666666667L1217.1923214285714,351.8666666666667L1218.1109571428572,351.8666666666667L1219.0295928571427,351.8666666666667L1219.9482285714284,351.8666666666667L1220.8668642857142,351.8666666666667L1221.7855,351.8666666666667L1223.6227714285712,351.8666666666667L1224.5414071428572,351.8666666666667L1225.4600428571428,323.3369374632835L1226.3786785714285,238.70359190543493L1227.2973142857143,198.8682380658785L1228.2159499999998,162.5161983463605L1229.1345857142858,132.69638447603225L1230.0532214285713,125.59946914577868L1230.971857142857,111.23968066094947L1231.8904928571428,109.12380880982856L1233.7277642857143,118.25428528589714L1234.6463999999999,104.4228155124349L1235.5650357142856,120.0414656870462L1237.4023071428571,113.09019136545443L1238.3209428571429,112.10673343887362L1239.2395785714284,106.65333066314713L1240.1582142857142,105.52813969491079" style="fill: none;" fill="none"></path></g></g></g></g><g opacity="0.2"><g><g><g><path stroke="rgb(238, 51, 119)" stroke-width="2px" d="M93.70084285714285,351.8666666666667L95.53811428571429,336.34313443501793L97.37538571428571,305.94999711910884L98.29402142857143,303.5333362142245L100.13129285714285,174.3375654836496L101.96856428571427,176.95225164492928L102.88719999999999,161.3397868792216L103.8058357142857,146.83158210118614L104.72447142857143,159.3128996014595L105.64310714285713,125.66666516860325L106.56174285714285,134.36666839520137L107.48037857142857,131.41751336256664L108.39901428571427,160.46666309436165L109.31765,151.9424276471138L110.23628571428571,139.04408674637477L111.15492142857141,119.7887062946955L112.07355714285714,158.4578125L112.99219285714285,120.37543780803679L113.91082857142855,139.67540811697643L114.82946428571428,90.25150997638701L115.7481,113.31299765110015L117.58537142857142,116.50790998538334L120.34127857142856,157.5666670123736L121.25991428571429,126.71388639211654L122.17854999999999,65.11818563143409L123.0971857142857,154.53072916666667L124.01582142857143,136.58524786631267L125.85309285714284,98.32864840030669L128.609,124.3666682163874L129.5276357142857,117.01421047449111L131.36490714285713,148.40634635289513L132.28354285714283,128.34480555057524L133.20217857142856,86.34515984058379L134.1208142857143,88.40760365327198L135.03945,143.03823837836586L135.95808571428572,158.4578125L137.7953571428571,118.48571321566898L138.71399285714284,144.41692860126494L140.5512642857143,112.45000077486037L141.4699,155.25914002656936L142.3885357142857,103.72824566761649L143.30717142857142,128.22260102828346L144.22580714285712,141.19019740025203L145.14444285714285,139.4301601568858L146.98171428571428,114.14722421964008L147.90035,129.37486645778023L148.8189857142857,134.8953125L149.7376214285714,106.81666816473006L150.65625714285713,143.37423901955287L151.57489285714286,139.80416666666667L152.49352857142856,110.11807782649993L153.41216428571428,115.11963964700698L154.33079999999998,132.465026708444L155.2494357142857,85.10058374404906L156.1680714285714,120.48042209148406L158.00534285714284,92.95000154972075L158.92397857142856,139.3421564221382L159.8426142857143,118.33610911369323L160.76125,162.4146473725637L162.59852142857142,125.0276812036832L163.51715714285714,99.50327991644538L164.43579285714284,98.3666692495346L165.35442857142854,92.01356211503345L167.1917,102.59344016710914L168.11033571428572,107.03333307504653L169.94760714285712,133.5474599123001L170.86624285714285,85.68181736469268L171.78487857142855,94.14350866476691L172.70351428571428,103.57365301450092L173.62215,124.33383815685904L174.5407857142857,115.69999690055846L176.37805714285713,138.82239583333336L177.29669285714283,103.67499700387317L178.21532857142856,110.83388248284656L179.13396428571428,131.95L180.97123571428568,128.34480555057524L181.8898714285714,142.4222197254499L183.72714285714284,149.40370453596114L184.64577857142856,143.46944094896315L185.5644142857143,135.44074240525566L186.48304999999996,110.6315465490023L187.4016857142857,95.87901511987049L188.32032142857142,98.32864840030669L189.23895714285712,124.4698398431142L190.15759285714284,117.36369368632633L191.9948642857143,97.28332971731818L192.91349999999997,104.79321894248325L193.8321357142857,132.93177083333336L194.75077142857143,114.95409615039824L196.58804285714285,90.86665975252784L197.50667857142858,106.71366132497786L198.42531428571425,130.99798070589702L199.34394999999998,137.18611360788344L200.2625857142857,116.47612107992171L201.1812214285714,143.0978463212649L202.09985714285713,102.59344016710914L203.01849285714286,131.95L203.93712857142853,111.366668732961L205.77439999999999,115.98414956728614L206.6930357142857,92.38827271461486L207.6116714285714,97.44317308266956L208.53030714285714,126.88279304107033L209.44894285714287,120.37543780803679L211.28621428571427,114.86374045610427L212.20485,141.42486903270088L214.96075714285715,128.45925759474437L215.87939285714282,105.02142643133796L217.71666428571427,92.01356211503345L218.6353,119.48307139873504L220.47257142857143,124.61944394508994L222.30984285714283,92.425799202919L223.22847857142855,100.53333333333332L224.14711428571428,113.10000299612678L225.06574999999998,121.13442414204276L225.9843857142857,99.50327991644538L226.90302142857144,91.86666201750434L228.74029285714283,96.34444843928016L229.65892857142856,83.70298047065734L230.5775642857143,125.8693531473478L231.4962,98.50645354588825L233.3334714285714,139.28055605491005L234.2521071428571,122.1644775589307L235.17074285714284,93.91929351488746L237.00801428571427,107.74371474186576L237.92665,83.99824876785277L238.8452857142857,115.98414956728614L240.68255714285712,85.62372246583301L241.60119285714285,122.19999664227164L243.43846428571428,91.71462356249488L244.35709999999997,106.14345345099765L246.1943714285714,123.57222272157668L247.11300714285713,92.01356211503345L248.03164285714286,130.4049198746681L249.86891428571425,136.43809309800469L250.78754999999998,81.36384434700011L251.70618571428568,115.73494671980536L253.54345714285714,126.71388639211654L254.46209285714286,138.23333483139675L255.38072857142853,104.86666899124778L256.29936428571426,118.044263891379L258.13663571428566,114.72150682608283L259.0552714285714,106.61398018598555L259.9739071428571,90.4351126273473L260.8925428571428,110.83388248284656L261.81117857142857,89.31309309800464L262.72981428571427,97.39166966279346L263.64844999999997,121.15052083333332L264.56708571428567,146.88578952550887L265.4857214285714,127.04114583333336L267.3229928571428,102.69999741713202L268.2416285714286,153.9885575493177L270.9975357142857,94.14350866476691L274.6720785714286,131.95L275.5907142857142,130.45396647055946L277.4279857142857,130.93656010627745L278.34662142857144,96.04524023532866L279.26525714285714,112.45000077486037L281.1025285714286,110.45438557068503L282.02116428571424,112.45000077486037L282.9398,118.17076036532718L283.8584357142857,111.366668732961L284.7770714285714,120.10437072515487L287.53297857142854,113.10000299612678L288.45161428571424,133.44603352944057L289.37025,129.92312021255492L290.2888857142857,113.53333281675971L292.12615714285715,121.47778027455008L293.04479285714285,102.59344016710914L293.96342857142855,108.38749999999999L294.88206428571425,119.48307139873504L295.8007,62.59622584978736L296.7193357142857,117.86666847467421L297.6379714285714,121.47778027455008L299.4752428571428,113.7080669323603L300.39387857142856,134.9903196811676L301.31251428571426,100.53333333333332L303.1497857142857,114.37796343564986L304.0684214285714,125.8693531473478L304.9870571428571,97.39166966279346L305.9056928571428,111.68117965459822L306.82432857142857,131.45132465362548L307.74296428571427,69.66783415476478L308.66159999999996,114.37796343564986L310.4988714285714,154.6666634400686L311.4175071428571,92.95000154972075L313.2547785714286,163.36666666666667L314.1734142857143,130.45396647055946L315.09205,117.36369368632633L316.9293214285714,126.71388639211654L317.8479571428571,124.7000023047129L318.7665928571428,131.43497329155605L319.6852285714286,113.92404273351032L320.6038642857143,88.6166733821233L321.5225,89.0138848940531L322.4411357142857,83.99824876785277L323.35977142857143,98.47322649955748L324.27840714285713,110.66773976087569L325.19704285714283,87.53333384990691L326.11567857142853,121.47778027455008L327.0343142857143,101.61666537523269L329.79022142857144,131.95L330.7088571428571,120.80215367873508L331.62749285714284,77.38420894940693L332.54612857142854,93.91929351488746L334.3834,101.59830660820006L335.3020357142857,120.76779559453327L336.22067142857145,108.24970812797545L338.05794285714285,93.80118619600928L339.89521428571425,122.82903346618015L341.7324857142857,106.35123484532035L342.6511214285714,70.32500460942585L343.5697571428571,86.91944244702655L344.4883928571428,136.30000161329906L345.40702857142855,96.20000516573585L347.2443,84.82499999999999L348.1629357142857,111.75357356866199L349.0815714285714,118.6378565351168L350.0002071428571,112.89398931662238L350.9188428571428,130.82797298034035L351.83747857142856,142.74947916666667L352.75611428571426,127.59999838670097L353.67475,84.53939421176909L358.26792857142857,130.45396647055946L360.1052,20.56363772551215L361.02383571428567,108.7737681587537L362.8611071428571,85.87222122351325L363.7797428571428,64.62857356866199L364.6983785714286,81.03332661787665L365.6170142857143,59.74678940773009L366.5356499999999,59.74678940773009L367.4542857142857,-19.78581624031072L368.3729214285714,100.53333333333332L369.29155714285713,85.94701952934264L370.21019285714283,49.335803023974066L371.1288285714286,13.533331028620365L372.0474642857143,72.97485406398772L374.8033714285714,52.8666635672251L375.72200714285714,22.84848403135932L376.64064285714284,100.53333333333332L377.5592785714286,68.58418002923328L378.47791428571423,93.43925407727558L380.3151857142857,326.73333483139675L381.2338214285714,351.8666666666667L383.07109285714284,351.8666666666667L383.9897285714286,351.8666666666667L384.90836428571424,351.8666666666667L385.82699999999994,351.8666666666667L386.7456357142857,351.8666666666667L387.6642714285714,351.8666666666667L388.58290714285715,351.8666666666667L389.50154285714285,351.8666666666667L390.4201785714285,351.8666666666667L391.33881428571425,351.8666666666667L392.25744999999995,351.8666666666667L393.1760857142857,351.8666666666667L394.0947214285714,351.8666666666667L395.93199285714286,351.8666666666667L396.8506285714285,351.8666666666667L398.68789999999996,351.8666666666667L400.5251714285714,351.8666666666667L402.3624428571428,351.8666666666667L404.19971428571426,351.8666666666667L405.11834999999996,351.8666666666667L406.0369857142857,351.8666666666667L406.9556214285714,351.8666666666667L407.87425714285706,351.8666666666667L408.7928928571428,351.8666666666667L409.7115285714285,351.8666666666667L410.6301642857143,351.8666666666667L411.54879999999997,351.8666666666667L412.4674357142857,351.8666666666667L413.3860714285714,351.8666666666667L414.30470714285707,351.8666666666667L415.2233428571428,351.8666666666667L416.1419785714285,351.8666666666667L417.0606142857143,351.8666666666667L417.97925,351.8666666666667L418.89788571428574,351.8666666666667L419.8165214285714,351.8666666666667L420.7351571428571,351.8666666666667L421.65379285714283,351.8666666666667L422.57242857142853,351.8666666666667L423.4910642857143,351.8666666666667L424.4097,351.8666666666667L425.32833571428574,351.8666666666667L426.2469714285714,351.8666666666667L427.1656071428571,351.8666666666667L428.08424285714284,351.8666666666667L429.00287857142854,351.8666666666667L429.9215142857143,351.8666666666667L430.84015,351.8666666666667L432.6774214285714,351.8666666666667L433.5960571428571,351.8666666666667L435.43332857142855,351.8666666666667L436.3519642857143,351.8666666666667L437.2706,351.8666666666667L438.18923571428564,351.8666666666667L439.1078714285714,351.8666666666667L440.0265071428571,351.8666666666667L440.94514285714286,351.8666666666667L442.7824142857143,351.8666666666667L443.70104999999995,351.8666666666667L445.5383214285714,351.8666666666667L446.4569571428571,351.8666666666667L447.37559285714286,351.8666666666667L448.29422857142856,351.8666666666667L449.21286428571426,351.8666666666667L451.05013571428566,351.8666666666667L451.9687714285714,351.8666666666667L452.8874071428571,351.8666666666667L453.80604285714287,351.8666666666667L456.56194999999997,351.8666666666667L458.3992214285714,351.8666666666667L459.3178571428571,351.8666666666667L461.1551285714286,351.8666666666667L462.0737642857142,351.8666666666667L462.9924,351.8666666666667L464.82967142857143,351.8666666666667L465.74830714285713,351.8666666666667L467.5855785714285,351.8666666666667L469.42285,351.8666666666667L470.3414857142857,351.8666666666667L471.2601214285714,351.8666666666667L473.09739285714284,351.8666666666667L474.01602857142854,351.8666666666667L474.93466428571423,351.8666666666667L477.6905714285714,351.8666666666667L478.60920714285714,351.8666666666667L479.5278428571428,351.8666666666667L480.44647857142854,351.8666666666667L481.36511428571424,351.8666666666667L482.28374999999994,351.8666666666667L484.1210214285714,351.8666666666667L485.9582928571428,351.8666666666667L487.79556428571425,351.8666666666667L489.6328357142857,351.8666666666667L492.3887428571428,351.8666666666667L493.30737857142856,351.8666666666667L495.14464999999996,351.8666666666667L496.0632857142857,351.8666666666667L496.9819214285714,351.8666666666667L497.9005571428571,351.8666666666667L498.8191928571428,351.8666666666667L500.65646428571426,351.8666666666667L501.57509999999996,351.8666666666667L502.4937357142857,351.8666666666667L503.41237142857136,351.8666666666667L504.3310071428571,351.8666666666667L505.2496428571428,351.8666666666667L506.1682785714285,351.8666666666667L507.0869142857143,351.8666666666667L508.00554999999997,351.8666666666667L508.9241857142857,351.8666666666667L509.84282142857137,351.8666666666667L510.76145714285707,351.8666666666667L512.5987285714285,351.8666666666667L513.5173642857143,351.8666666666667L514.436,351.8666666666667L515.3546357142857,351.8666666666667L516.2732714285713,351.8666666666667L517.1919071428571,351.8666666666667L518.1105428571428,351.8666666666667L519.0291785714286,351.8666666666667L519.9478142857142,351.8666666666667L520.86645,351.8666666666667L521.7850857142856,351.8666666666667L522.7037214285714,351.8666666666667L523.6223571428571,351.8666666666667L524.5409928571428,351.8666666666667L525.4596285714285,351.8666666666667L526.3782642857143,351.8666666666667L527.2968999999999,351.8666666666667L528.2155357142857,351.8666666666667L529.1341714285713,351.8666666666667L530.9714428571428,351.8666666666667L531.8900785714286,351.8666666666667L535.5646214285714,351.8666666666667L537.4018928571428,351.8666666666667L538.3205285714286,351.8666666666667L539.2391642857142,351.8666666666667L540.1578,351.8666666666667L541.0764357142857,351.8666666666667L541.9950714285714,351.8666666666667L543.8323428571429,351.8666666666667L544.7509785714286,351.8666666666667L545.6696142857143,351.8666666666667L548.4255214285714,351.8666666666667L549.3441571428572,351.8666666666667L551.1814285714285,351.8666666666667L554.8559714285714,351.8666666666667L555.7746071428571,351.8666666666667L556.6932428571429,351.8666666666667L557.6118785714285,351.8666666666667L558.5305142857143,351.8666666666667L559.4491499999999,351.8666666666667L560.3677857142857,351.8666666666667L561.2864214285714,351.8666666666667L562.2050571428572,351.8666666666667L563.1236928571428,351.8666666666667L564.9609642857142,351.8666666666667L565.8796,351.8666666666667L566.7982357142857,351.8666666666667L567.7168714285714,351.8666666666667L568.635507142857,351.8666666666667L569.5541428571428,351.8666666666667L570.4727785714285,351.8666666666667L573.2286857142857,351.8666666666667L574.1473214285714,351.8666666666667L575.0659571428571,351.8666666666667L580.5777714285714,351.8666666666667L582.4150428571428,351.8666666666667L583.3336785714285,351.8666666666667L584.2523142857143,351.8666666666667L585.17095,351.8666666666667L586.0895857142857,351.8666666666667L587.0082214285713,351.8666666666667L587.9268571428571,351.8666666666667L588.8454928571429,351.8666666666667L589.7641285714285,351.8666666666667L590.6827642857143,351.8666666666667L591.6014,351.8666666666667L592.5200357142857,351.8666666666667L593.4386714285714,351.8666666666667L594.357307142857,351.8666666666667L595.2759428571428,351.8666666666667L596.1945785714286,351.8666666666667L597.1132142857143,351.8666666666667L598.9504857142856,351.8666666666667L599.8691214285714,351.8666666666667L600.7877571428571,351.8666666666667L602.6250285714285,351.8666666666667L604.4622999999999,351.8666666666667L605.3809357142857,351.8666666666667L606.2995714285714,351.8666666666667L607.2182071428571,351.8666666666667L608.1368428571428,351.8666666666667L609.9741142857142,351.8666666666667L610.89275,351.8666666666667L611.8113857142856,351.8666666666667L612.7300214285714,351.8666666666667L613.6486571428571,351.8666666666667L614.5672928571429,351.8666666666667L615.4859285714285,351.8666666666667L616.4045642857142,351.8666666666667L617.3231999999999,351.8666666666667L618.2418357142857,351.8666666666667L619.1604714285714,351.8666666666667L620.0791071428571,351.8666666666667L621.9163785714286,351.8666666666667L622.8350142857142,351.8666666666667L623.75365,351.8666666666667L624.6722857142856,351.8666666666667L625.5909214285714,351.8666666666667L626.5095571428571,351.8666666666667L627.4281928571428,351.8666666666667L628.3468285714285,351.8666666666667L629.2654642857142,351.8666666666667L630.1841,351.8666666666667L631.1027357142857,351.8666666666667L632.0213714285713,351.8666666666667L632.9400071428571,351.8666666666667L633.8586428571429,351.8666666666667L635.6959142857143,351.8666666666667L636.61455,351.8666666666667L637.5331857142857,351.8666666666667L639.3704571428572,351.8666666666667L640.2890928571428,351.8666666666667L641.2077285714286,351.8666666666667L642.1263642857142,351.8666666666667L643.9636357142856,351.8666666666667L644.8822714285714,351.8666666666667L645.8009071428571,351.8666666666667L646.7195428571429,351.8666666666667L647.6381785714285,351.8666666666667L648.5568142857143,351.8666666666667L649.4754499999999,351.8666666666667L651.3127214285714,351.8666666666667L653.1499928571428,351.8666666666667L654.0686285714286,351.8666666666667L654.9872642857142,351.8666666666667L657.7431714285714,351.8666666666667L661.4177142857142,351.8666666666667L662.3363499999999,351.8666666666667L663.2549857142857,351.8666666666667L664.1736214285714,351.8666666666667L665.0922571428571,351.8666666666667L666.0108928571428,351.8666666666667L666.9295285714285,351.8666666666667L667.8481642857142,351.8666666666667L670.6040714285714,351.8666666666667L671.522707142857,351.8666666666667L672.4413428571429,351.8666666666667L673.3599785714285,351.8666666666667L675.1972499999999,351.8666666666667L676.1158857142857,351.8666666666667L677.0345214285715,351.8666666666667L678.8717928571427,351.8666666666667L679.7904285714285,351.8666666666667L680.7090642857142,351.8666666666667L681.6277,351.8666666666667L682.5463357142856,351.8666666666667L683.4649714285714,351.8666666666667L684.383607142857,351.8666666666667L685.3022428571428,351.8666666666667L686.2208785714286,351.8666666666667L687.1395142857142,351.8666666666667L688.05815,351.8666666666667L688.9767857142856,351.8666666666667L689.8954214285715,351.8666666666667L690.8140571428571,351.8666666666667L691.7326928571428,351.8666666666667L692.6513285714285,351.8666666666667L695.4072357142857,351.8666666666667L696.3258714285714,351.8666666666667L698.1631428571428,351.8666666666667L699.0817785714286,351.8666666666667L700.0004142857142,351.8666666666667L700.91905,351.8666666666667L701.8376857142856,351.8666666666667L702.7563214285714,351.8666666666667L703.6749571428571,351.8666666666667L704.5935928571428,351.8666666666667L705.5122285714285,351.8666666666667L706.4308642857142,351.8666666666667L707.3495,351.8666666666667L709.1867714285713,351.8666666666667L710.1054071428571,351.8666666666667L711.0240428571427,351.8666666666667L711.9426785714286,351.8666666666667L712.8613142857142,351.8666666666667L713.77995,351.8666666666667L714.6985857142856,351.8666666666667L715.6172214285713,351.8666666666667L716.5358571428571,351.8666666666667L717.4544928571428,351.8666666666667L718.3731285714285,351.8666666666667L719.2917642857142,351.8666666666667L720.2104,351.8666666666667L721.1290357142857,351.8666666666667L722.0476714285713,351.8666666666667L722.9663071428571,351.8666666666667L723.8849428571427,351.8666666666667L724.8035785714286,351.8666666666667L725.7222142857142,351.8666666666667L726.6408499999999,351.8666666666667L728.4781214285713,351.8666666666667L730.3153928571428,351.8666666666667L732.1526642857142,351.8666666666667L734.9085714285713,351.8666666666667L735.8272071428571,351.8666666666667L736.7458428571427,351.8666666666667L737.6644785714286,351.8666666666667L738.5831142857143,351.8666666666667L739.5017499999999,351.8666666666667L740.4203857142857,351.8666666666667L741.3390214285713,351.8666666666667L742.2576571428572,351.8666666666667L743.1762928571428,351.8666666666667L744.0949285714286,351.8666666666667L745.0135642857142,351.8666666666667L745.9321999999999,351.8666666666667L748.6881071428571,351.8666666666667L749.6067428571428,351.8666666666667L750.5253785714284,351.8666666666667L752.3626499999999,351.8666666666667L753.2812857142857,351.8666666666667L754.1999214285713,351.8666666666667L755.1185571428572,351.8666666666667L756.0371928571428,351.8666666666667L756.9558285714285,351.8666666666667L757.8744642857142,351.8666666666667L758.7930999999999,351.8666666666667L759.7117357142857,351.8666666666667L762.4676428571428,351.8666666666667L763.3862785714284,351.8666666666667L764.3049142857143,351.8666666666667L765.2235499999999,351.8666666666667L767.0608214285713,351.8666666666667L767.9794571428572,351.8666666666667L768.8980928571428,351.8666666666667L769.8167285714285,351.8666666666667L770.7353642857142,351.8666666666667L771.6539999999999,351.8666666666667L772.5726357142858,351.8666666666667L773.4912714285714,351.8666666666667L774.409907142857,351.8666666666667L775.3285428571428,351.8666666666667L776.2471785714284,351.8666666666667L777.1658142857143,351.8666666666667L778.08445,351.8666666666667L779.0030857142857,351.8666666666667L780.840357142857,351.8666666666667L781.7589928571429,351.8666666666667L782.6776285714285,351.8666666666667L783.5962642857143,351.8666666666667L784.5148999999999,351.8666666666667L785.4335357142858,351.8666666666667L786.3521714285714,351.8666666666667L787.270807142857,351.8666666666667L790.0267142857143,351.8666666666667L790.94535,351.8666666666667L792.7826214285714,351.8666666666667L793.701257142857,351.8666666666667L794.6198928571429,351.8666666666667L795.5385285714285,351.8666666666667L796.4571642857143,351.8666666666667L797.3757999999999,351.8666666666667L799.2130714285714,351.8666666666667L800.1317071428571,351.8666666666667L801.0503428571428,351.8666666666667L801.9689785714285,351.8666666666667L802.8876142857143,351.8666666666667L803.80625,351.8666666666667L804.7248857142856,351.8666666666667L805.6435214285714,351.8666666666667L807.4807928571429,351.8666666666667L808.3994285714285,351.8666666666667L809.3180642857143,351.8666666666667L811.1553357142856,351.8666666666667L812.0739714285714,351.8666666666667L812.9926071428571,351.8666666666667L813.9112428571428,351.8666666666667L814.8298785714285,351.8666666666667L815.7485142857141,351.8666666666667L817.5857857142856,351.8666666666667L818.5044214285714,351.8666666666667L819.423057142857,351.8666666666667L820.3416928571429,351.8666666666667L821.2603285714285,351.8666666666667L822.1789642857142,351.8666666666667L823.0975999999999,351.8666666666667L824.0162357142856,351.8666666666667L824.9348714285715,351.8666666666667L825.8535071428571,351.8666666666667L826.7721428571429,351.8666666666667L827.6907785714285,351.8666666666667L829.52805,351.8666666666667L831.3653214285714,351.8666666666667L832.283957142857,351.8666666666667L833.2025928571429,351.8666666666667L834.1212285714286,351.8666666666667L835.0398642857142,351.8666666666667L835.9585,351.8666666666667L837.7957714285715,351.8666666666667L838.7144071428571,351.8666666666667L839.6330428571428,351.8666666666667L840.5516785714285,351.8666666666667L841.4703142857142,351.8666666666667L842.38895,351.8666666666667L844.2262214285714,351.8666666666667L846.0634928571427,351.8666666666667L846.9821285714286,351.8666666666667L848.8194,351.8666666666667L849.7380357142856,351.8666666666667L850.6566714285715,351.8666666666667L853.4125785714285,351.8666666666667L854.3312142857142,351.8666666666667L855.24985,351.8666666666667L856.1684857142857,351.8666666666667L857.0871214285714,351.8666666666667L858.0057571428571,351.8666666666667L858.9243928571427,351.8666666666667L859.8430285714286,351.8666666666667L860.7616642857142,351.8666666666667L861.6803,351.8666666666667L862.5989357142856,351.8666666666667L863.5175714285713,351.8666666666667L864.4362071428571,351.8666666666667L866.2734785714285,351.8666666666667L867.1921142857142,351.8666666666667L869.0293857142857,351.8666666666667L869.9480214285713,351.8666666666667L870.8666571428571,351.8666666666667L871.7852928571427,351.8666666666667L873.6225642857142,351.8666666666667L874.5412,351.8666666666667L875.4598357142856,351.8666666666667L876.3784714285713,351.8666666666667L878.2157428571428,351.8666666666667L880.0530142857142,351.8666666666667L881.8902857142857,351.8666666666667L882.8089214285714,351.8666666666667L883.7275571428571,351.8666666666667L884.6461928571428,351.8666666666667L885.5648285714286,351.8666666666667L889.2393714285713,351.8666666666667L890.1580071428572,351.8666666666667L891.0766428571428,351.8666666666667L891.9952785714286,351.8666666666667L892.9139142857142,351.8666666666667L894.7511857142857,351.8666666666667L895.6698214285714,351.8666666666667L896.5884571428571,351.8666666666667L897.5070928571428,351.8666666666667L898.4257285714285,351.8666666666667L899.3443642857143,351.8666666666667L900.2629999999999,351.8666666666667L901.1816357142857,351.8666666666667L902.1002714285713,351.8666666666667L903.0189071428572,351.8666666666667L904.8561785714286,351.8666666666667L905.7748142857142,351.8666666666667L906.6934499999999,351.8666666666667L907.6120857142857,351.8666666666667L908.5307214285714,351.8666666666667L909.4493571428571,351.8666666666667L910.3679928571428,351.8666666666667L911.2866285714284,351.8666666666667L912.2052642857143,351.8666666666667L913.1238999999999,351.8666666666667L914.0425357142857,351.8666666666667L914.9611714285713,351.8666666666667L915.8798071428571,351.8666666666667L916.7984428571428,351.8666666666667L917.7170785714285,351.8666666666667L918.6357142857142,351.8666666666667L919.5543499999999,351.8666666666667L921.3916214285714,351.8666666666667L922.3102571428572,351.8666666666667L923.2288928571428,351.8666666666667L924.1475285714284,351.8666666666667L925.0661642857143,351.8666666666667L925.9848,351.8666666666667L926.9034357142857,351.8666666666667L927.8220714285713,351.8666666666667L928.7407071428571,351.8666666666667L929.6593428571429,351.8666666666667L930.5779785714285,351.8666666666667L931.4966142857143,351.8666666666667L933.3338857142857,351.8666666666667L934.2525214285714,351.8666666666667L935.171157142857,351.8666666666667L936.0897928571428,351.8666666666667L937.9270642857142,351.8666666666667L938.8457,351.8666666666667L939.7643357142857,351.8666666666667L940.6829714285714,351.8666666666667L941.601607142857,351.8666666666667L942.5202428571428,351.8666666666667L944.3575142857143,351.8666666666667L945.2761499999999,351.8666666666667L947.1134214285714,351.8666666666667L948.0320571428571,351.8666666666667L948.9506928571428,351.8666666666667L949.8693285714285,351.8666666666667L950.7879642857142,351.8666666666667L951.7066,351.8666666666667L953.5438714285714,351.8666666666667L955.3811428571428,351.8666666666667L958.1370499999999,351.8666666666667L959.0556857142856,351.8666666666667L959.9743214285713,351.8666666666667L960.8929571428571,351.8666666666667L962.7302285714285,351.8666666666667L963.6488642857142,351.8666666666667L964.5674999999999,351.8666666666667L966.4047714285714,351.8666666666667L967.323407142857,351.8666666666667L968.2420428571428,351.8666666666667L969.1606785714285,351.8666666666667L970.99795,351.8666666666667L971.9165857142856,351.8666666666667L972.8352214285713,351.8666666666667L973.7538571428571,351.8666666666667L974.6724928571429,351.8666666666667L975.5911285714285,351.8666666666667L976.5097642857141,351.8666666666667L977.4283999999999,351.8666666666667L978.3470357142857,351.8666666666667L979.2656714285714,351.8666666666667L980.184307142857,351.8666666666667L981.1029428571428,351.8666666666667L982.9402142857142,351.8666666666667L984.7774857142856,351.8666666666667L985.6961214285714,351.8666666666667L987.5333928571429,351.8666666666667L988.4520285714285,351.8666666666667L989.3706642857142,351.8666666666667L990.2892999999999,351.8666666666667L991.2079357142857,351.8666666666667L992.1265714285714,351.8666666666667L993.0452071428571,351.8666666666667L993.9638428571428,351.8666666666667L994.8824785714285,351.8666666666667L995.8011142857142,351.8666666666667L996.71975,351.8666666666667L997.6383857142856,351.8666666666667L999.475657142857,351.8666666666667L1000.3942928571428,351.8666666666667L1001.3129285714285,351.8666666666667L1002.2315642857142,351.8666666666667L1003.1501999999999,351.8666666666667L1004.0688357142856,351.8666666666667L1005.9061071428571,351.8666666666667L1007.7433785714285,351.8666666666667L1008.6620142857142,351.8666666666667L1010.4992857142856,351.8666666666667L1011.4179214285714,351.8666666666667L1013.2551928571428,351.8666666666667L1014.1738285714285,351.8666666666667L1015.0924642857142,351.8666666666667L1016.0110999999999,351.8666666666667L1017.8483714285715,351.8666666666667L1018.7670071428571,351.8666666666667L1019.6856428571427,351.8666666666667L1021.5229142857141,351.8666666666667L1022.44155,351.8666666666667L1023.3601857142856,351.8666666666667L1024.2788214285713,351.8666666666667L1026.1160928571428,351.8666666666667L1027.0347285714286,351.8666666666667L1028.872,351.8666666666667L1030.7092714285714,351.8666666666667L1031.627907142857,351.8666666666667L1032.5465428571426,351.8666666666667L1033.4651785714286,351.8666666666667L1034.3838142857142,351.8666666666667L1035.30245,351.8666666666667L1036.2210857142857,351.8666666666667L1038.0583571428572,351.8666666666667L1039.8956285714285,351.8666666666667L1040.8142642857142,351.8666666666667L1041.7329,351.8666666666667L1042.6515357142857,351.8666666666667L1043.5701714285713,351.8666666666667L1044.488807142857,351.8666666666667L1045.4074428571428,351.8666666666667L1046.3260785714285,351.8666666666667L1047.2447142857143,351.8666666666667L1048.1633499999998,351.8666666666667L1050.0006214285713,351.8666666666667L1050.919257142857,351.8666666666667L1051.8378928571428,351.8666666666667L1052.7565285714286,351.8666666666667L1055.5124357142856,351.8666666666667L1056.4310714285714,351.8666666666667L1057.3497071428571,351.8666666666667L1058.2683428571427,351.8666666666667L1059.1869785714287,351.8666666666667L1061.02425,351.8666666666667L1061.9428857142857,351.8666666666667L1062.8615214285712,351.8666666666667L1063.7801571428572,351.8666666666667L1064.6987928571427,351.8666666666667L1069.2919714285713,351.8666666666667L1070.210607142857,351.8666666666667L1071.1292428571428,351.8666666666667L1072.0478785714283,351.8666666666667L1072.9665142857143,351.8666666666667L1073.8851499999998,351.8666666666667L1074.8037857142856,351.8666666666667L1075.7224214285714,351.8666666666667L1076.641057142857,351.8666666666667L1077.5596928571429,351.8666666666667L1078.4783285714284,351.8666666666667L1079.3969642857141,351.8666666666667L1080.3156,351.8666666666667L1081.2342357142857,351.8666666666667L1082.1528714285714,351.8666666666667L1083.0715071428572,351.8666666666667L1083.9901428571427,351.8666666666667L1084.9087785714285,351.8666666666667L1085.8274142857142,351.8666666666667L1086.74605,351.8666666666667L1087.6646857142857,351.8666666666667L1088.5833214285713,351.8666666666667L1089.5019571428572,351.8666666666667L1090.4205928571428,351.8666666666667L1092.2578642857143,351.8666666666667L1094.0951357142858,351.8666666666667L1095.0137714285713,351.8666666666667L1095.932407142857,351.8666666666667L1096.8510428571428,351.8666666666667L1097.7696785714284,351.8666666666667L1099.6069499999999,351.8666666666667L1101.4442214285714,351.8666666666667L1102.362857142857,351.8666666666667L1103.281492857143,351.8666666666667L1104.2001285714284,351.8666666666667L1106.0374,351.8666666666667L1106.9560357142857,351.8666666666667L1107.8746714285714,351.8666666666667L1108.793307142857,351.8666666666667L1109.7119428571427,351.8666666666667L1112.46785,351.8666666666667L1113.3864857142858,351.8666666666667L1116.1423928571428,351.8666666666667L1117.0610285714286,351.8666666666667L1117.9796642857143,351.8666666666667L1120.7355714285713,351.8666666666667L1121.654207142857,351.8666666666667L1123.4914785714284,351.8666666666667L1124.4101142857144,351.8666666666667L1125.32875,351.8666666666667L1126.2473857142857,351.8666666666667L1127.1660214285714,351.8666666666667L1128.084657142857,351.8666666666667L1129.003292857143,351.8666666666667L1129.9219285714285,351.8666666666667L1130.8405642857142,351.8666666666667L1131.7592,351.8666666666667L1133.5964714285715,351.8666666666667L1134.515107142857,351.8666666666667L1135.4337428571428,351.8666666666667L1137.271014285714,351.8666666666667L1138.18965,351.8666666666667L1139.1082857142856,351.8666666666667L1140.0269214285713,351.8666666666667L1140.945557142857,351.8666666666667L1141.8641928571428,351.8666666666667L1142.7828285714286,351.8666666666667L1143.701464285714,351.8666666666667L1144.6200999999999,351.8666666666667L1145.5387357142856,351.8666666666667L1146.4573714285714,351.8666666666667L1148.294642857143,351.8666666666667L1149.2132785714284,351.8666666666667L1150.1319142857142,351.8666666666667L1151.05055,351.8666666666667L1151.9691857142857,351.8666666666667L1152.8878214285714,351.8666666666667L1153.806457142857,351.8666666666667L1154.725092857143,351.8666666666667L1155.6437285714285,351.8666666666667L1156.5623642857142,351.8666666666667L1157.481,351.8666666666667L1158.3996357142855,351.8666666666667L1159.3182714285715,351.8666666666667L1160.236907142857,351.8666666666667L1162.0741785714285,351.8666666666667L1162.992814285714,351.8666666666667L1163.91145,351.8666666666667L1164.8300857142856,351.8666666666667L1165.7487214285713,351.8666666666667L1166.667357142857,351.8666666666667L1167.5859928571426,351.8666666666667L1171.2605357142857,351.8666666666667L1173.0978071428572,351.8666666666667L1174.0164428571427,351.8666666666667L1175.8537142857142,351.8666666666667L1176.77235,351.8666666666667L1177.6909857142857,351.8666666666667L1178.6096214285715,351.8666666666667L1179.528257142857,351.8666666666667L1181.3655285714285,351.8666666666667L1182.2841642857143,351.8666666666667L1183.2028,351.8666666666667L1184.1214357142856,351.8666666666667L1185.0400714285713,351.8666666666667L1185.958707142857,351.8666666666667L1186.8773428571428,351.8666666666667L1187.7959785714286,351.8666666666667L1188.714614285714,351.8666666666667L1189.63325,351.8666666666667L1190.5518857142856,351.8666666666667L1191.4705214285714,351.8666666666667L1192.3891571428571,351.8666666666667L1193.3077928571427,351.8666666666667L1194.2264285714286,351.8666666666667L1195.1450642857142,351.8666666666667L1196.0637,351.8666666666667L1196.9823357142857,351.8666666666667L1197.9009714285712,351.8666666666667L1198.8196071428572,351.8666666666667L1200.6568785714285,351.8666666666667L1201.5755142857142,351.8666666666667L1202.49415,351.8666666666667L1204.3314214285713,351.8666666666667L1205.250057142857,351.8666666666667L1206.1686928571428,351.8666666666667L1207.0873285714285,351.8666666666667L1208.0059642857143,351.8666666666667L1208.9245999999998,351.8666666666667L1210.7618714285713,351.8666666666667L1212.5991428571429,351.8666666666667L1214.4364142857141,351.8666666666667L1215.35505,351.8666666666667L1217.1923214285714,351.8666666666667L1218.1109571428572,351.8666666666667L1219.0295928571427,351.8666666666667L1219.9482285714284,351.8666666666667L1220.8668642857142,351.8666666666667L1221.7855,351.8666666666667L1223.6227714285712,351.8666666666667L1224.5414071428572,351.8666666666667L1225.4600428571428,280.5423436582089L1226.3786785714285,111.75357356866199L1227.2973142857143,139.115207306544L1228.2159499999998,107.98813876708347L1229.1345857142858,87.96666367053984L1230.0532214285713,114.95409615039824L1230.971857142857,89.69999793370563L1231.8904928571428,105.95000103314716L1233.7277642857143,131.95L1234.6463999999999,83.6756108522415L1235.5650357142856,143.46944094896315L1237.4023071428571,102.66327988306678L1238.3209428571429,110.6315465490023L1239.2395785714284,98.47322649955748L1240.1582142857142,103.84035324255622" style="fill: none;" fill="none"></path></g></g></g></g></g></g><g transform="translate(50, 377)" clip-path="url(#clip_1)"><clipPath id="clip_1"><rect width="1286" height="23"></rect></clipPath><g><g><line x1="0" y1="0" x2="0" y2="5" style="visibility: inherit;" fill="rgb(0, 0, 0)" stroke="rgb(204, 204, 204)" stroke-width="1px"></line><line x1="91.86357142857142" y1="0" x2="91.86357142857142" y2="5" style="visibility: inherit;" fill="rgb(0, 0, 0)" stroke="rgb(204, 204, 204)" stroke-width="1px"></line><line x1="183.72714285714284" y1="0" x2="183.72714285714284" y2="5" style="visibility: inherit;" fill="rgb(0, 0, 0)" stroke="rgb(204, 204, 204)" stroke-width="1px"></line><line x1="275.5907142857142" y1="0" x2="275.5907142857142" y2="5" style="visibility: inherit;" fill="rgb(0, 0, 0)" stroke="rgb(204, 204, 204)" stroke-width="1px"></line><line x1="367.4542857142857" y1="0" x2="367.4542857142857" y2="5" style="visibility: inherit;" fill="rgb(0, 0, 0)" stroke="rgb(204, 204, 204)" stroke-width="1px"></line><line x1="459.3178571428571" y1="0" x2="459.3178571428571" y2="5" style="visibility: inherit;" fill="rgb(0, 0, 0)" stroke="rgb(204, 204, 204)" stroke-width="1px"></line><line x1="551.1814285714285" y1="0" x2="551.1814285714285" y2="5" style="visibility: inherit;" fill="rgb(0, 0, 0)" stroke="rgb(204, 204, 204)" stroke-width="1px"></line><line x1="643.045" y1="0" x2="643.045" y2="5" style="visibility: inherit;" fill="rgb(0, 0, 0)" stroke="rgb(204, 204, 204)" stroke-width="1px"></line><line x1="734.9085714285713" y1="0" x2="734.9085714285713" y2="5" style="visibility: inherit;" fill="rgb(0, 0, 0)" stroke="rgb(204, 204, 204)" stroke-width="1px"></line><line x1="826.7721428571429" y1="0" x2="826.7721428571429" y2="5" style="visibility: inherit;" fill="rgb(0, 0, 0)" stroke="rgb(204, 204, 204)" stroke-width="1px"></line><line x1="918.6357142857142" y1="0" x2="918.6357142857142" y2="5" style="visibility: inherit;" fill="rgb(0, 0, 0)" stroke="rgb(204, 204, 204)" stroke-width="1px"></line><line x1="1010.4992857142856" y1="0" x2="1010.4992857142856" y2="5" style="visibility: inherit;" fill="rgb(0, 0, 0)" stroke="rgb(204, 204, 204)" stroke-width="1px"></line><line x1="1102.362857142857" y1="0" x2="1102.362857142857" y2="5" style="visibility: inherit;" fill="rgb(0, 0, 0)" stroke="rgb(204, 204, 204)" stroke-width="1px"></line><line x1="1194.2264285714286" y1="0" x2="1194.2264285714286" y2="5" style="visibility: inherit;" fill="rgb(0, 0, 0)" stroke="rgb(204, 204, 204)" stroke-width="1px"></line><line x1="1286.09" y1="0" x2="1286.09" y2="5" style="visibility: inherit;" fill="rgb(0, 0, 0)" stroke="rgb(204, 204, 204)" stroke-width="1px"></line></g><g transform="translate(0, 8)"><text x="0" y="0" dx="0em" dy="0.95em" style="text-anchor: middle; visibility: hidden; font-family: Roboto, sans-serif; font-size: 12px; font-weight: 200;" fill="rgb(33, 33, 33)" stroke="none" stroke-width="1px">-200k</text><text x="91.86357142857142" y="0" dx="0em" dy="0.95em" style="text-anchor: middle; visibility: inherit; font-family: Roboto, sans-serif; font-size: 12px; font-weight: 200;" fill="rgb(33, 33, 33)" stroke="none" stroke-width="1px">0</text><text x="183.72714285714284" y="0" dx="0em" dy="0.95em" style="text-anchor: middle; visibility: inherit; font-family: Roboto, sans-serif; font-size: 12px; font-weight: 200;" fill="rgb(33, 33, 33)" stroke="none" stroke-width="1px">200k</text><text x="275.5907142857142" y="0" dx="0em" dy="0.95em" style="text-anchor: middle; visibility: inherit; font-family: Roboto, sans-serif; font-size: 12px; font-weight: 200;" fill="rgb(33, 33, 33)" stroke="none" stroke-width="1px">400k</text><text x="367.4542857142857" y="0" dx="0em" dy="0.95em" style="text-anchor: middle; visibility: inherit; font-family: Roboto, sans-serif; font-size: 12px; font-weight: 200;" fill="rgb(33, 33, 33)" stroke="none" stroke-width="1px">600k</text><text x="459.3178571428571" y="0" dx="0em" dy="0.95em" style="text-anchor: middle; visibility: inherit; font-family: Roboto, sans-serif; font-size: 12px; font-weight: 200;" fill="rgb(33, 33, 33)" stroke="none" stroke-width="1px">800k</text><text x="551.1814285714285" y="0" dx="0em" dy="0.95em" style="text-anchor: middle; visibility: inherit; font-family: Roboto, sans-serif; font-size: 12px; font-weight: 200;" fill="rgb(33, 33, 33)" stroke="none" stroke-width="1px">1M</text><text x="643.045" y="0" dx="0em" dy="0.95em" style="text-anchor: middle; visibility: inherit; font-family: Roboto, sans-serif; font-size: 12px; font-weight: 200;" fill="rgb(33, 33, 33)" stroke="none" stroke-width="1px">1.2M</text><text x="734.9085714285713" y="0" dx="0em" dy="0.95em" style="text-anchor: middle; visibility: inherit; font-family: Roboto, sans-serif; font-size: 12px; font-weight: 200;" fill="rgb(33, 33, 33)" stroke="none" stroke-width="1px">1.4M</text><text x="826.7721428571429" y="0" dx="0em" dy="0.95em" style="text-anchor: middle; visibility: inherit; font-family: Roboto, sans-serif; font-size: 12px; font-weight: 200;" fill="rgb(33, 33, 33)" stroke="none" stroke-width="1px">1.6M</text><text x="918.6357142857142" y="0" dx="0em" dy="0.95em" style="text-anchor: middle; visibility: inherit; font-family: Roboto, sans-serif; font-size: 12px; font-weight: 200;" fill="rgb(33, 33, 33)" stroke="none" stroke-width="1px">1.8M</text><text x="1010.4992857142856" y="0" dx="0em" dy="0.95em" style="text-anchor: middle; visibility: inherit; font-family: Roboto, sans-serif; font-size: 12px; font-weight: 200;" fill="rgb(33, 33, 33)" stroke="none" stroke-width="1px">2M</text><text x="1102.362857142857" y="0" dx="0em" dy="0.95em" style="text-anchor: middle; visibility: inherit; font-family: Roboto, sans-serif; font-size: 12px; font-weight: 200;" fill="rgb(33, 33, 33)" stroke="none" stroke-width="1px">2.2M</text><text x="1194.2264285714286" y="0" dx="0em" dy="0.95em" style="text-anchor: middle; visibility: inherit; font-family: Roboto, sans-serif; font-size: 12px; font-weight: 200;" fill="rgb(33, 33, 33)" stroke="none" stroke-width="1px">2.4M</text><text x="1286.09" y="0" dx="0em" dy="0.95em" style="text-anchor: middle; visibility: hidden; font-family: Roboto, sans-serif; font-size: 12px; font-weight: 200;" fill="rgb(33, 33, 33)" stroke="none" stroke-width="1px">2.6M</text></g><line x1="0" y1="0" x2="1286.09" y2="0" fill="rgb(0, 0, 0)" stroke="rgb(204, 204, 204)" stroke-width="1px"></line></g></g></g></g></svg>