<svg viewBox="0 0 330 200" xmlns="http://www.w3.org/2000/svg"><g><g><g><g><g><line x1="40" y1="177" x2="35" y2="177" style="visibility: inherit;" fill="rgb(0, 0, 0)" stroke="rgb(204, 204, 204)" stroke-width="1px"></line><line x1="40" y1="162.25" x2="35" y2="162.25" style="visibility: inherit;" fill="rgb(0, 0, 0)" stroke="rgb(204, 204, 204)" stroke-width="1px"></line><line x1="40" y1="147.5" x2="35" y2="147.5" style="visibility: inherit;" fill="rgb(0, 0, 0)" stroke="rgb(204, 204, 204)" stroke-width="1px"></line><line x1="40" y1="132.75" x2="35" y2="132.75" style="visibility: inherit;" fill="rgb(0, 0, 0)" stroke="rgb(204, 204, 204)" stroke-width="1px"></line><line x1="40" y1="118.00000000000001" x2="35" y2="118.00000000000001" style="visibility: inherit;" fill="rgb(0, 0, 0)" stroke="rgb(204, 204, 204)" stroke-width="1px"></line><line x1="40" y1="103.24999999999999" x2="35" y2="103.24999999999999" style="visibility: inherit;" fill="rgb(0, 0, 0)" stroke="rgb(204, 204, 204)" stroke-width="1px"></line><line x1="40" y1="88.5" x2="35" y2="88.5" style="visibility: inherit;" fill="rgb(0, 0, 0)" stroke="rgb(204, 204, 204)" stroke-width="1px"></line><line x1="40" y1="73.75" x2="35" y2="73.75" style="visibility: inherit;" fill="rgb(0, 0, 0)" stroke="rgb(204, 204, 204)" stroke-width="1px"></line><line x1="40" y1="59.00000000000001" x2="35" y2="59.00000000000001" style="visibility: inherit;" fill="rgb(0, 0, 0)" stroke="rgb(204, 204, 204)" stroke-width="1px"></line><line x1="40" y1="44.25" x2="35" y2="44.25" style="visibility: inherit;" fill="rgb(0, 0, 0)" stroke="rgb(204, 204, 204)" stroke-width="1px"></line><line x1="40" y1="29.499999999999993" x2="35" y2="29.499999999999993" style="visibility: inherit;" fill="rgb(0, 0, 0)" stroke="rgb(204, 204, 204)" stroke-width="1px"></line><line x1="40" y1="14.750000000000007" x2="35" y2="14.750000000000007" style="visibility: inherit;" fill="rgb(0, 0, 0)" stroke="rgb(204, 204, 204)" stroke-width="1px"></line><line x1="40" y1="0" x2="35" y2="0" style="visibility: inherit;" fill="rgb(0, 0, 0)" stroke="rgb(204, 204, 204)" stroke-width="1px"></line></g><g transform="translate(30, 0)"><text x="0" y="177" dx="0em" dy="0.3em" style="text-anchor: end; visibility: hidden; font-family: Roboto, sans-serif; font-size: 12px; font-weight: 200;" fill="rgb(33, 33, 33)" stroke="none" stroke-width="1px">-10</text><text x="0" y="162.25" dx="0em" dy="0.3em" style="text-anchor: end; visibility: inherit; font-family: Roboto, sans-serif; font-size: 12px; font-weight: 200;" fill="rgb(33, 33, 33)" stroke="none" stroke-width="1px">0</text><text x="0" y="147.5" dx="0em" dy="0.3em" style="text-anchor: end; visibility: hidden; font-family: Roboto, sans-serif; font-size: 12px; font-weight: 200;" fill="rgb(33, 33, 33)" stroke="none" stroke-width="1px">10</text><text x="0" y="132.75" dx="0em" dy="0.3em" style="text-anchor: end; visibility: inherit; font-family: Roboto, sans-serif; font-size: 12px; font-weight: 200;" fill="rgb(33, 33, 33)" stroke="none" stroke-width="1px">20</text><text x="0" y="118.00000000000001" dx="0em" dy="0.3em" style="text-anchor: end; visibility: hidden; font-family: Roboto, sans-serif; font-size: 12px; font-weight: 200;" fill="rgb(33, 33, 33)" stroke="none" stroke-width="1px">30</text><text x="0" y="103.24999999999999" dx="0em" dy="0.3em" style="text-anchor: end; visibility: inherit; font-family: Roboto, sans-serif; font-size: 12px; font-weight: 200;" fill="rgb(33, 33, 33)" stroke="none" stroke-width="1px">40</text><text x="0" y="88.5" dx="0em" dy="0.3em" style="text-anchor: end; visibility: hidden; font-family: Roboto, sans-serif; font-size: 12px; font-weight: 200;" fill="rgb(33, 33, 33)" stroke="none" stroke-width="1px">50</text><text x="0" y="73.75" dx="0em" dy="0.3em" style="text-anchor: end; visibility: inherit; font-family: Roboto, sans-serif; font-size: 12px; font-weight: 200;" fill="rgb(33, 33, 33)" stroke="none" stroke-width="1px">60</text><text x="0" y="59.00000000000001" dx="0em" dy="0.3em" style="text-anchor: end; visibility: hidden; font-family: Roboto, sans-serif; font-size: 12px; font-weight: 200;" fill="rgb(33, 33, 33)" stroke="none" stroke-width="1px">70</text><text x="0" y="44.25" dx="0em" dy="0.3em" style="text-anchor: end; visibility: inherit; font-family: Roboto, sans-serif; font-size: 12px; font-weight: 200;" fill="rgb(33, 33, 33)" stroke="none" stroke-width="1px">80</text><text x="0" y="29.499999999999993" dx="0em" dy="0.3em" style="text-anchor: end; visibility: hidden; font-family: Roboto, sans-serif; font-size: 12px; font-weight: 200;" fill="rgb(33, 33, 33)" stroke="none" stroke-width="1px">90</text><text x="0" y="14.750000000000007" dx="0em" dy="0.3em" style="text-anchor: end; visibility: inherit; font-family: Roboto, sans-serif; font-size: 12px; font-weight: 200;" fill="rgb(33, 33, 33)" stroke="none" stroke-width="1px">100</text><text x="0" y="0" dx="0em" dy="0.3em" style="text-anchor: end; visibility: hidden; font-family: Roboto, sans-serif; font-size: 12px; font-weight: 200;" fill="rgb(33, 33, 33)" stroke="none" stroke-width="1px">110</text></g><line x1="40" y1="0" x2="40" y2="177" fill="rgb(0, 0, 0)" stroke="rgb(204, 204, 204)" stroke-width="1px"></line></g></g><g transform="translate(40, 0)" clip-path="url(#clip_0)"><clipPath id="clip_0"><rect width="290" height="177"></rect></clipPath><g><g><g><line x1="0" y1="0" x2="0" y2="177" fill="rgb(0, 0, 0)" stroke="rgb(66, 66, 66)" stroke-width="1px" opacity="0.25"></line><line x1="20.71428571428571" y1="0" x2="20.71428571428571" y2="177" fill="rgb(0, 0, 0)" stroke="rgb(66, 66, 66)" stroke-width="1px" opacity="0.25"></line><line x1="41.42857142857142" y1="0" x2="41.42857142857142" y2="177" fill="rgb(0, 0, 0)" stroke="rgb(66, 66, 66)" stroke-width="1px" opacity="0.25"></line><line x1="62.14285714285714" y1="0" x2="62.14285714285714" y2="177" fill="rgb(0, 0, 0)" stroke="rgb(66, 66, 66)" stroke-width="1px" opacity="0.25"></line><line x1="82.85714285714285" y1="0" x2="82.85714285714285" y2="177" fill="rgb(0, 0, 0)" stroke="rgb(66, 66, 66)" stroke-width="1px" opacity="0.25"></line><line x1="103.57142857142857" y1="0" x2="103.57142857142857" y2="177" fill="rgb(0, 0, 0)" stroke="rgb(66, 66, 66)" stroke-width="1px" opacity="0.25"></line><line x1="124.28571428571428" y1="0" x2="124.28571428571428" y2="177" fill="rgb(0, 0, 0)" stroke="rgb(66, 66, 66)" stroke-width="1px" opacity="0.25"></line><line x1="145" y1="0" x2="145" y2="177" fill="rgb(0, 0, 0)" stroke="rgb(66, 66, 66)" stroke-width="1px" opacity="0.25"></line><line x1="165.7142857142857" y1="0" x2="165.7142857142857" y2="177" fill="rgb(0, 0, 0)" stroke="rgb(66, 66, 66)" stroke-width="1px" opacity="0.25"></line><line x1="186.42857142857144" y1="0" x2="186.42857142857144" y2="177" fill="rgb(0, 0, 0)" stroke="rgb(66, 66, 66)" stroke-width="1px" opacity="0.25"></line><line x1="207.14285714285714" y1="0" x2="207.14285714285714" y2="177" fill="rgb(0, 0, 0)" stroke="rgb(66, 66, 66)" stroke-width="1px" opacity="0.25"></line><line x1="227.85714285714286" y1="0" x2="227.85714285714286" y2="177" fill="rgb(0, 0, 0)" stroke="rgb(66, 66, 66)" stroke-width="1px" opacity="0.25"></line><line x1="248.57142857142856" y1="0" x2="248.57142857142856" y2="177" fill="rgb(0, 0, 0)" stroke="rgb(66, 66, 66)" stroke-width="1px" opacity="0.25"></line><line x1="269.2857142857143" y1="0" x2="269.2857142857143" y2="177" fill="rgb(0, 0, 0)" stroke="rgb(66, 66, 66)" stroke-width="1px" opacity="0.25"></line><line x1="290" y1="0" x2="290" y2="177" fill="rgb(0, 0, 0)" stroke="rgb(66, 66, 66)" stroke-width="1px" opacity="0.25"></line></g><g><line x1="0" y1="177" x2="290" y2="177" fill="rgb(0, 0, 0)" stroke="rgb(66, 66, 66)" stroke-width="1px" opacity="0.25"></line><line x1="0" y1="162.25" x2="290" y2="162.25" fill="rgb(0, 0, 0)" stroke="rgb(66, 66, 66)" stroke-width="1px" opacity="0.25"></line><line x1="0" y1="147.5" x2="290" y2="147.5" fill="rgb(0, 0, 0)" stroke="rgb(66, 66, 66)" stroke-width="1px" opacity="0.25"></line><line x1="0" y1="132.75" x2="290" y2="132.75" fill="rgb(0, 0, 0)" stroke="rgb(66, 66, 66)" stroke-width="1px" opacity="0.25"></line><line x1="0" y1="118.00000000000001" x2="290" y2="118.00000000000001" fill="rgb(0, 0, 0)" stroke="rgb(66, 66, 66)" stroke-width="1px" opacity="0.25"></line><line x1="0" y1="103.24999999999999" x2="290" y2="103.24999999999999" fill="rgb(0, 0, 0)" stroke="rgb(66, 66, 66)" stroke-width="1px" opacity="0.25"></line><line x1="0" y1="88.5" x2="290" y2="88.5" fill="rgb(0, 0, 0)" stroke="rgb(66, 66, 66)" stroke-width="1px" opacity="0.25"></line><line x1="0" y1="73.75" x2="290" y2="73.75" fill="rgb(0, 0, 0)" stroke="rgb(66, 66, 66)" stroke-width="1px" opacity="0.25"></line><line x1="0" y1="59.00000000000001" x2="290" y2="59.00000000000001" fill="rgb(0, 0, 0)" stroke="rgb(66, 66, 66)" stroke-width="1px" opacity="0.25"></line><line x1="0" y1="44.25" x2="290" y2="44.25" fill="rgb(0, 0, 0)" stroke="rgb(66, 66, 66)" stroke-width="1px" opacity="0.25"></line><line x1="0" y1="29.499999999999993" x2="290" y2="29.499999999999993" fill="rgb(0, 0, 0)" stroke="rgb(66, 66, 66)" stroke-width="1px" opacity="0.25"></line><line x1="0" y1="14.750000000000007" x2="290" y2="14.750000000000007" fill="rgb(0, 0, 0)" stroke="rgb(66, 66, 66)" stroke-width="1px" opacity="0.25"></line><line x1="0" y1="0" x2="290" y2="0" fill="rgb(0, 0, 0)" stroke="rgb(66, 66, 66)" stroke-width="1px" opacity="0.25"></line></g></g></g><g><g><line x1="0" y1="162.25" x2="290" y2="162.25" fill="rgb(0, 0, 0)" stroke="rgb(153, 153, 153)" stroke-width="1.5px"></line></g></g><g><g><line x1="20.71428571428571" y1="0" x2="20.71428571428571" y2="177" fill="rgb(0, 0, 0)" stroke="rgb(153, 153, 153)" stroke-width="1.5px"></line></g></g><g><g><g><g><g><path stroke="rgb(238, 51, 119)" stroke-width="2px" d="M21.12857142857143,127.95625L21.542857142857144,127.8179691016674L21.95714285714286,127.1641905103411L22.164285714285715,125.04556524700978L22.57857142857143,120.57161081841552L22.99285714285714,119.23356219519862L23.2,117.71161119940723L23.407142857142855,114.183456824118L23.614285714285717,114.58641356497702L23.821428571428573,112.64474206965721L24.02857142857143,114.83961792876791L24.235714285714288,114.00097047284726L24.442857142857143,115.60267421996288L24.650000000000002,117.57598453353283L24.857142857142858,116.10273165215925L25.064285714285713,116.18316190662145L25.271428571428572,116.96903039032193L25.478571428571428,115.38508965226046L25.685714285714283,115.64440255106176L25.892857142857142,112.25985186965879L26.099999999999998,113.08092913372668L26.514285714285716,113.06222495102836L27.135714285714286,114.95868335587791L27.342857142857145,115.67371317654357L27.55,113.40838738198254L27.757142857142856,115.14670243621595L27.964285714285715,115.10802142213991L28.378571428571426,114.19981229555798L29,113.62538761581855L29.207142857142856,114.54923299879638L29.621428571428574,115.2707064866215L29.82857142857143,115.71947575798067L30.03571428571429,114.48447287140053L30.242857142857144,113.86993415536733L30.45,116.79783576862025L30.65714285714286,117.43603465104337L31.07142857142857,116.91428760410855L31.27857142857143,115.70640619140289L31.692857142857143,115.33744997622678L31.9,114.56363770168164L32.107142857142854,115.06301580469807L32.31428571428572,114.86114356627883L32.52142857142857,117.03118569025959L32.72857142857143,116.4353784558311L33.14285714285714,115.62555980656877L33.35,115.28716861707447L33.55714285714286,116.09597161476349L33.76428571428571,116.00208251872172L33.971428571428575,117.48797098876159L34.17857142857143,116.84711645174175L34.385714285714286,114.94826987103585L34.59285714285714,114.49729600617732L34.8,114.45287715357205L35.00714285714286,113.68872584200814L35.214285714285715,115.46240254698455L35.628571428571426,115.36627493654643L35.83571428571428,117.3047649619283L36.042857142857144,116.85519216044548L36.25,117.21478233804588L36.66428571428571,115.6293567685501L36.871428571428574,115.19596740890836L37.07857142857143,114.99367701822099L37.285714285714285,114.20003849395262L37.7,114.51052354650585L37.90714285714286,114.06748184488347L38.32142857142857,113.50665682391008L38.52857142857143,112.97349364421179L38.73571428571428,113.31243027008419L38.94285714285714,115.05962452862767L39.150000000000006,115.3802742670423L39.357142857142854,115.3858313769368L39.77142857142857,115.70137427629638L39.97857142857143,115.14582456577781L40.18571428571428,116.77916178124525L40.392857142857146,115.3008311523043L40.80714285714286,115.41683209973829L41.01428571428571,115.3290994849101L41.42857142857142,115.03075074471803L41.635714285714286,116.17911658834082L41.84285714285715,115.301897252504L42.05,113.68188790136813L42.25714285714286,112.24280045780085L42.464285714285715,112.50034664125766L42.67142857142857,113.38254116804318L42.878571428571426,113.03669106740305L43.292857142857144,111.92451464044181L43.5,114.43337537590939L43.707142857142856,114.94450837221311L43.91428571428572,113.74770592359643L44.32857142857143,112.34129037086926L44.53571428571429,113.86727422252157L44.74285714285714,115.87436475858007L44.95,115.46595113816807L45.15714285714286,116.77457068290084L45.364285714285714,116.72390945151908L45.57142857142857,116.08384522077716L45.77857142857143,115.67030713246629L45.98571428571428,114.81251791290263L46.4,115.300843705963L46.60714285714286,113.30267259015494L46.81428571428571,112.6249376376501L47.02142857142857,114.51929644108004L47.228571428571435,114.10224513149373L47.642857142857146,113.17351344547339L47.85,115.39910806728403L48.471428571428575,115.859298023659L48.67857142857142,113.18541199748397L49.09285714285714,113.21481798401284L49.300000000000004,114.88243552154785L49.714285714285715,114.19229494635155L50.128571428571426,114.60421037616665L50.33571428571429,115.10702577556572L50.542857142857144,115.51688228205086L50.75,116.17579551074053L50.957142857142856,115.05680958946434L51.16428571428572,114.77875212025575L51.57857142857143,114.29725127215345L51.785714285714285,113.0791003131578L51.99285714285715,114.01496018789467L52.199999999999996,115.34347566260251L52.614285714285714,115.28508562262866L52.82142857142857,114.63055092344291L53.02857142857143,113.42658010393147L53.44285714285714,113.65771930259326L53.65,113.35121777082597L53.85714285714286,113.4702302123613L54.27142857142857,113.74813902768534L54.47857142857143,113.38388341661121L54.89285714285714,112.89982959983244L55.1,113.67139685963092L55.51428571428571,113.13133901604711L55.72142857142857,115.48196955113826L55.92857142857143,114.69951536410582L56.34285714285714,114.77087693544347L56.550000000000004,114.71535979468894L56.75714285714285,115.73421587681335L57.17142857142857,116.28652930102088L57.37857142857143,114.48408394718967L57.58571428571428,113.77628445187094L57.792857142857144,114.16777022098829L58.207142857142856,113.83232804903582L58.41428571428571,114.81106387120006L58.621428571428574,113.94297060574006L58.82857142857142,114.0317832637126L59.035714285714285,113.25906995822756L59.24285714285715,114.83094242507082L59.449999999999996,115.31189841326392L59.65714285714286,114.29263949809264L59.864285714285714,116.76874984036557L60.278571428571425,115.88458398777647L60.48571428571429,117.32075039266589L61.107142857142854,115.9502838690224L61.93571428571429,116.97667054648056L62.14285714285714,116.7370021028212L62.55714285714286,116.30803421991416L62.76428571428572,114.93948689852564L62.97142857142857,114.16752442213541L63.385714285714286,112.5105143099585L63.59285714285714,112.60533385452976L63.8,112.66870076285215L64.00714285714287,112.79122011438854L64.21428571428571,113.69473206863313L64.83571428571429,113.80417242446845L65.04285714285714,114.63683731317106L65.25,115.32326897954692L65.45714285714286,114.13229547128529L65.87142857142857,114.49937728277116L66.07857142857144,114.32629228610556L66.28571428571428,113.69144263850905L66.49285714285715,114.82486558310542L66.7,111.5814184495947L66.90714285714286,112.32968515331395L67.11428571428571,113.86031109198838L67.52857142857142,114.98518688026016L67.73571428571428,114.48241141404476L67.94285714285715,115.57993902066806L68.35714285714286,115.05137722313083L68.56428571428572,115.36795155894563L68.77142857142857,115.66360456879023L68.97857142857143,115.949162516207L69.18571428571428,115.02899705958994L69.39285714285714,114.66373051877396L69.6,114.20857194468722L70.01428571428572,115.39232288482991L70.22142857142858,114.4293928306294L70.63571428571429,115.46430274015621L70.84285714285714,115.42641527751657L71.05,114.1843500667785L71.46428571428572,114.20611049020138L71.67142857142856,115.71383311083224L71.87857142857143,116.40213327485507L72.08571428571429,115.36961404847017L72.29285714285714,114.18960206250496L72.5,113.88476213777153L72.70714285714286,114.5770238743072L72.91428571428573,113.95004660760432L73.12142857142858,114.32119568154259L73.32857142857142,115.36005059221411L73.53571428571428,116.13602995478526L73.74285714285715,114.39378433944832L74.36428571428571,114.34160423709184L74.57142857142857,114.54629482527511L74.77857142857142,113.63660917818508L74.98571428571428,112.13696550691104L75.4,112.74096088984001L75.60714285714286,113.56624245034688L75.81428571428572,112.40941183678527L76.22857142857143,111.62681481905115L76.64285714285714,113.29108889143068L77.05714285714286,111.04465333485841L77.2642857142857,108.85604245104932L77.47142857142856,111.82529251240815L77.67857142857143,114.05180028237777L77.88571428571429,113.50708106969522L78.30000000000001,113.05241590866282L78.50714285714287,112.05093269186517L78.71428571428571,113.2898934736091L78.92142857142856,113.44326881731975L79.12857142857143,113.59429537394897L79.33571428571429,114.73707767450367L79.54285714285714,116.22908046319219L79.75,112.8172814612039L80.78571428571429,114.48720273521234L81.2,113.62387445179634L81.40714285714284,113.66235823278434L81.82142857142857,113.10624722269061L82.02857142857142,112.85124833361438L82.2357142857143,112.64908308372576L82.44285714285715,112.79328213325549L82.64999999999999,111.2573015629733L82.85714285714285,107.72988138791827L83.06428571428572,109.9400951993281L83.27142857142857,109.91905711959686L83.47857142857143,109.4737674550467L83.6857142857143,109.49176047302801L83.89285714285715,110.05322355066251L84.51428571428572,110.4687668635518L84.72142857142858,111.57125935519164L84.92857142857143,111.092024564531L85.13571428571429,112.32121563898714L85.34285714285714,113.97371260253904L85.75714285714285,119.83222801165769L85.96428571428571,122.9756366269409L86.37857142857143,125.51363152603028L86.58571428571429,126.26942891561816L86.79285714285713,126.98840779950515L87,128.09091945463595L87.20714285714286,128.08425162776817L87.41428571428571,128.9475505265266L87.62142857142858,129.11153076605027L87.82857142857144,129.09191845963016L88.03571428571428,129.2984515709258L88.24285714285713,128.34119616762263L88.45,129.41884247550644L88.65714285714286,129.1541334157543L88.86428571428571,129.02643026383856L89.27857142857144,128.59835815830314L89.48571428571428,128.54063966991473L89.9,128.74938380194885L90.31428571428572,129.44973083658923L90.72857142857143,129.31696372702066L91.14285714285714,129.67108773633447L91.35,129.79640264180068L91.55714285714286,130.30524194518784L91.76428571428572,130.1326447169784L91.97142857142856,129.75193195347805L92.17857142857142,130.12873458865178L92.38571428571429,129.33349075319106L92.59285714285714,129.10709400178038L92.8,129.1246560859742L93.00714285714287,129.8151684265174L93.21428571428572,129.4919758308433L93.42142857142856,129.945585183412L93.62857142857142,129.05397588498005L93.83571428571429,129.30076075605515L94.04285714285714,129.4237569487808L94.25,129.15387939433563L94.45714285714287,128.94770241153424L94.66428571428571,129.28862144692053L94.87142857142857,129.31438515986986L95.07857142857142,129.5086310959219L95.28571428571429,130.28892865755316L95.49285714285715,128.93548241959903L95.7,128.7325892717057L95.90714285714286,128.62117833795628L96.11428571428571,128.8935822278409L96.32142857142857,128.66614933670454L96.52857142857142,128.43381437695558L96.73571428571428,129.17498858115994L96.94285714285715,129.20374314869596L97.15,129.5012461142847L97.5642857142857,129.59862244350367L97.77142857142857,130.40487319602167L98.18571428571428,130.13342436774727L98.39285714285715,130.2773542155275L98.60000000000001,130.16016252931652L98.80714285714285,129.88039778767046L99.0142857142857,129.64911389766942L99.22142857142858,129.46609311353453L99.42857142857143,129.0834058681207L99.84285714285716,129.09716874593957L100.05,129.57742602249658L100.46428571428571,128.46433038843082L100.67142857142858,128.82159868319278L100.87857142857143,128.84420920991565L101.08571428571429,128.8135250758151L101.29285714285714,128.69186504548907L101.70714285714286,128.61886902729344L101.91428571428571,129.3346966414432L102.12142857142857,129.1314180748928L102.32857142857144,129.51685129506993L102.94999999999999,129.41181028189425L103.36428571428571,129.22046139420368L103.57142857142857,129.0947014199573L103.9857142857143,128.93432085197438L104.19285714285714,128.7348429613189L104.39999999999999,128.7700305517242L104.81428571428572,128.68641824100766L105.02142857142857,128.88847571953747L105.43571428571428,129.11738570180304L105.85,128.8520561960147L106.05714285714286,129.03210894267596L106.26428571428572,129.43956541061902L106.67857142857143,128.27836447143855L106.88571428571429,128.496143457796L107.09285714285714,128.54568652481188L107.71428571428572,128.5754123650214L107.92142857142858,129.18324786914712L108.12857142857142,129.33407349642113L108.33571428571427,129.87801951441762L108.54285714285714,130.30570109768865L108.75,129.9116702084789L109.16428571428573,130.30403862029607L109.57857142857142,129.68723844546255L109.99285714285715,129.73234306727753L110.40714285714286,129.5086562905008L111.02857142857142,129.03519377430047L111.23571428571428,129.24524103951316L111.65,129.04676984877503L111.85714285714286,128.81706213433216L112.06428571428572,128.71611250566642L112.27142857142857,128.95791705326556L112.47857142857143,128.80062545702648L112.89285714285714,129.29477518418904L113.10000000000001,129.01011466037914L113.30714285714286,128.66231879622748L113.5142857142857,129.53039172787078L113.72142857142856,128.79748548685674L113.92857142857143,128.8076160670469L114.13571428571429,129.329944415161L114.34285714285714,129.69496619896233L114.55000000000001,129.39035494444454L114.75714285714287,129.45833774159956L114.96428571428571,129.49470259994632L115.17142857142856,129.86019678503493L115.58571428571429,130.34941856616865L115.79285714285714,129.58390158983548L116,129.86700799567984L116.20714285714286,130.00111429752997L116.41428571428571,129.84691857851797L116.62142857142857,129.7544011471108L116.82857142857142,129.5130403731725L117.03571428571429,129.58357377376922L117.24285714285715,128.88101948932868L117.45,128.60698691866435L117.65714285714284,128.94849242127916L117.86428571428571,129.08997067783463L118.07142857142857,128.73973195656652L118.27857142857142,129.34262688222236L118.4857142857143,128.6223659471435L118.69285714285715,128.48129434321896L118.89999999999999,128.71377660593137L119.10714285714285,129.27364073849168L119.31428571428572,129.26588394794732L119.72857142857143,129.4795303687684L119.9357142857143,130.00301826627447L120.76428571428572,129.3539361848318L121.17857142857143,129.70198693596623L121.38571428571429,129.25149220659316L121.59285714285714,128.2908953239559L121.8,129.1674119693064L122.00714285714285,129.49419718158381L122.21428571428571,128.70201875908458L122.62857142857143,128.7503360303836L122.83571428571429,129.33982684329732L123.04285714285713,129.24659651109923L123.66428571428571,128.95170790665955L123.87142857142858,129.06977474399574L124.28571428571428,129.16274007146458L125.11428571428571,128.4810192679459L125.32142857142858,128.3227363357004L125.52857142857144,127.82951702648737L125.73571428571428,128.75340994581185L125.94285714285714,129.20154551735283L126.15,128.79930253547883L126.35714285714286,128.92228192640815L126.56428571428572,128.80874393077775L126.77142857142857,128.7848715835338L126.97857142857143,128.80004772505313L127.39285714285714,128.76342877007215L127.6,129.25180726204331L127.80714285714286,129.4268339070917L128.01428571428573,129.78850070436243L128.22142857142856,129.8447251975503L128.42857142857142,129.62771034359733L128.63571428571427,130.1686257560241L129.25714285714287,130.44155022854733L129.46428571428572,129.7424301371284L129.67142857142858,130.2964578572099L130.9142857142857,130.22324948925882L131.32857142857142,130.1276996935553L131.53571428571428,129.96122013122715L131.74285714285713,129.55010730380346L131.95000000000002,129.62793915721494L132.15714285714287,128.95926349432895L132.3642857142857,129.19525805158392L132.57142857142856,129.87965483095036L132.77857142857144,130.20179312363737L132.9857142857143,129.30357587418243L133.19285714285715,129.03752029944232L133.4,129.71421168451766L133.60714285714286,129.25440223577775L133.81428571428572,128.83839089133238L134.02142857142857,129.07553453479943L134.22857142857143,129.2640078737422L134.43571428571428,128.9685286256125L134.64285714285714,128.91024195030036L135.05714285714285,128.21151994511308L135.2642857142857,128.61091219213498L135.47142857142856,129.6249225403481L135.8857142857143,129.14071106586536L136.29999999999998,129.21267618938495L136.50714285714284,129.86060616376525L136.71428571428572,129.7331141483934L136.92142857142858,129.31736848903603L137.12857142857143,128.80242064328735L137.54285714285714,129.20145238597243L137.75,129.14587143158346L137.95714285714286,129.86182312903063L138.1642857142857,129.15121865235125L138.37142857142857,129.11573119141076L138.57857142857142,129.75818871484645L138.78571428571428,129.00791367904213L138.99285714285713,129.14774865755956L139.2,128.62689874440144L139.40714285714284,128.45451447170802L139.61428571428573,128.89683345795765L139.82142857142858,128.90409984970745L140.2357142857143,129.46158468475733L140.44285714285715,128.9332008108544L140.65,129.00262089163348L140.85714285714286,129.3953225349801L141.06428571428572,129.33594352098805L141.27142857142857,129.1306908875257L141.47857142857143,129.77011403736773L141.68571428571428,128.89706842242063L141.89285714285714,128.86736582838523L142.1,128.88284408046619L142.30714285714285,128.95834803458342L142.5142857142857,129.29500882075007L142.7214285714286,129.64450529245005L142.92857142857144,129.23470362560428L143.34285714285713,129.72632262549686L143.55,129.51979380036525L143.75714285714287,128.67312628021915L144.17142857142858,128.7772509931986L144.37857142857143,129.12735037085204L144.5857142857143,128.71053499744409L144.79285714285714,128.6521962235336L145.20714285714286,128.72044250905302L145.4142857142857,128.76139028036468L145.62142857142857,128.97770939328595L145.82857142857145,128.8936251858373L146.03571428571428,129.3520503365695L146.24285714285716,129.11822975180743L146.45,129.43265517057299L146.86428571428573,129.45421832741093L147.27857142857144,129.81378099644655L147.4857142857143,130.10326859786795L147.69285714285712,129.43621160885505L148.31428571428572,128.91797696531304L149.14285714285714,129.53628662932206L149.35,129.1520720226067L149.55714285714285,129.75786798849688L149.76428571428573,129.2289712432324L149.97142857142856,129.33938229580517L150.17857142857144,129.14602973759054L150.38571428571427,129.8501178425543L150.59285714285713,129.31382070553258L151.21428571428572,129.43454242331956L151.42142857142858,128.9671249138306L151.62857142857143,128.46689972323122L151.8357142857143,129.4205146088716L152.25,129.53690908041696L152.45714285714286,128.94889589838445L152.66428571428574,129.21558753903068L153.07857142857142,129.93009368095014L153.28571428571428,129.7526814336372L153.49285714285713,130.14920850007493L153.70000000000002,130.93877555017923L153.90714285714284,130.03486519506725L154.11428571428573,130.45716911704037L154.32142857142858,129.99517669529135L154.5285714285714,129.1066009894038L154.7357142857143,128.86680019706634L154.94285714285712,129.95545489317269L155.15,129.28114771083648L155.35714285714286,128.97538813135415L155.56428571428572,129.25360810387963L155.77142857142857,129.32466486232778L155.97857142857143,129.46116204224407L156.18571428571428,129.42188195206154L156.80714285714285,128.7740147913541L157.01428571428573,129.03100873977218L157.42857142857142,129.06573046893044L157.6357142857143,129.3815635064254L157.84285714285713,129.1595381938821L158.05,128.1840981413964L158.25714285714287,128.11508410990498L158.4642857142857,128.32442524087585L158.67142857142858,129.11377991945838L158.8785714285714,129.44726817674217L159.0857142857143,128.7033609060453L159.29285714285714,128.92076654362717L159.5,129.22083515124345L159.9142857142857,128.69287586567893L160.12142857142857,128.7891007444745L160.32857142857142,129.24508522161756L160.5357142857143,129.91545126801083L160.74285714285713,129.55214553573933L160.95000000000002,129.52591254651074L161.15714285714284,129.2225470777722L161.3642857142857,129.92552779652902L161.57142857142858,129.69831712805168L161.7785714285714,129.58559014179073L161.9857142857143,129.64185453520872L162.19285714285715,129.14461227099096L162.4,129.61916772270197L162.60714285714286,129.07937540855409L162.8142857142857,129.0505000200653L163.02142857142857,128.85617523710633L163.22857142857143,129.25140554738465L163.4357142857143,129.22746810336363L163.64285714285714,129.33110608708532L163.85,129.66026351721092L164.2642857142857,129.3990328852594L164.67857142857142,129.33816973115563L165.09285714285716,129.44915183869338L165.7142857142857,128.85199110321602L165.92142857142858,128.91259412176848L166.12857142857143,129.0758060229268L166.3357142857143,129.2179836137561L166.54285714285714,129.15214858194994L166.75,129.00007685745243L166.95714285714286,129.14304656460573L167.1642857142857,128.88957793876344L167.3714285714286,129.6490468082715L167.57857142857142,129.39230285989575L167.7857142857143,130.0200069410046L167.99285714285713,129.57800393953562L168.2,129.79217713865424L168.82142857142858,130.31155628319254L169.02857142857144,129.69393331978122L169.23571428571427,128.88413764460924L169.64999999999998,128.7563578118327L169.85714285714286,129.81543946203246L170.06428571428572,128.57763890228662L170.27142857142857,129.04888293625112L170.47857142857143,128.65608021188493L170.68571428571428,128.4056476769967L170.89285714285714,128.6388890563323L171.1,129.2449332987591L171.30714285714288,128.77371042938975L171.92857142857142,129.3022267077681L172.13571428571427,128.44671079959372L172.34285714285716,128.64140170482338L172.54999999999998,128.61071624796116L172.96428571428572,128.96105497384386L173.17142857142858,129.27450775923919L173.37857142857143,129.56140416039577L173.58571428571426,130.1214677213046L173.79285714285714,130.54748094787675L174,129.55523901886033L174.20714285714286,129.6088929611819L174.4142857142857,130.33433600177628L174.62142857142857,129.62647682613292L174.82857142857142,129.0837608706126L175.03571428571428,130.11365665740786L175.24285714285716,129.87019354431044L175.45,129.05299135165342L175.65714285714287,128.37091958592492L176.07142857142856,128.79505175155495L176.27857142857144,129.4592533981925L176.48571428571427,129.34789716220652L176.69285714285715,129.8237382973239L176.9,129.51924297839435L177.10714285714286,129.41324529188893L177.31428571428572,129.56794717513333L177.52142857142857,129.39526785494573L178.14285714285717,130.17076125312857L178.35,130.16995675187715L178.7642857142857,130.65327387107257L178.97142857142856,130.45946432264356L179.17857142857144,130.49067859358613L179.38571428571427,130.75278238121882L179.59285714285716,130.37166942873128L179.8,129.94387688230591L180.21428571428572,129.6134513544507L180.42142857142855,129.96094558760328L180.62857142857143,130.3272670824814L180.8357142857143,129.74761024948884L181.04285714285714,129.06056569955905L181.25,129.15967237795687L181.45714285714286,128.40267157939252L181.6642857142857,127.75947772256838L182.07857142857145,127.83818663354103L182.28571428571428,128.79991152999034L182.49285714285716,128.26332214306134L182.90714285714284,128.5829932858368L183.11428571428573,128.67154642163635L183.32142857142856,129.26452771794155L183.52857142857144,128.83709185583206L183.7357142857143,129.51725511349926L183.94285714285712,129.35747829316668L184.35714285714283,129.60732657932408L184.56428571428572,129.0722707225273L184.77142857142857,128.86923765858353L184.97857142857143,129.41854214501583L185.18571428571428,129.7186252870095L185.39285714285714,129.58154994713857L185.6,128.58480519335026L185.80714285714285,128.73714568543767L186.01428571428573,129.5920407338639L186.22142857142856,129.5055992152512L186.42857142857144,129.8593593040836L186.63571428571427,129.68811558245017L187.05,130.3228693494701L187.46428571428572,130.48542111453435L187.67142857142858,130.15962789378773L187.87857142857143,129.6249015112055L188.0857142857143,128.86156568165617L188.29285714285714,129.390339544034L188.5,128.7429537264204L188.91428571428574,129.28377268598652L189.12142857142857,128.92976316145763L189.32857142857142,129.54335834700885L189.53571428571428,128.79051455807104L189.74285714285713,128.75180873484263L189.95000000000002,129.3480847907713L190.36428571428573,130.13655127958364L190.7785714285714,130.34855554268304L190.9857142857143,130.34153368571725L191.4,129.4390449863632L191.60714285714286,129.60726497781036L191.81428571428572,129.29102602846478L192.43571428571428,128.9046156170789L192.64285714285714,129.7790193702473L192.85000000000002,129.80953684721553L193.05714285714285,128.9356215529094L193.26428571428573,128.86618820503054L193.47142857142856,129.5052133731526L193.67857142857142,129.18062802389156L193.8857142857143,129.45197735449605L194.09285714285713,129.39206163776478L194.3,129.45936175759175L194.50714285714287,129.10097012386046L194.7142857142857,129.47527344623398L194.92142857142858,129.25853929280754L195.3357142857143,129.05474880075167L195.54285714285714,128.96197405538388L195.95714285714286,129.35618465829745L196.1642857142857,130.1974607949785L196.37142857142857,130.49277674706767L196.57857142857142,129.30116649837487L196.99285714285713,128.71157512409206L197.20000000000002,128.37815736617276L197.40714285714284,128.69923954299466L197.6142857142857,128.79291895086394L198.0285714285714,128.1853765955855L198.44285714285715,128.35922640748558L198.85714285714286,128.19213570945107L199.0642857142857,129.07865665073777L199.27142857142857,129.3893192155098L199.47857142857143,129.45919161933273L199.6857142857143,130.00851542173393L200.5142857142857,130.29385925304035L200.7214285714286,130.19219077689135L200.92857142857142,129.87601419605426L201.1357142857143,129.7497332925654L201.34285714285716,129.12821520060638L201.75714285714287,129.8099295704981L201.9642857142857,128.97258251723173L202.17142857142858,128.7651742852719L202.37857142857143,129.50950425606914L202.5857142857143,129.25695255364147L202.79285714285714,129.0611710820506L203,128.93632787429752L203.20714285714286,129.29949712969935L203.4142857142857,129.97169782768535L203.6214285714286,129.2097691467455L204.0357142857143,129.37211148804727L204.24285714285713,128.8102367262024L204.45,129.03861106037962L204.65714285714287,129.4906666362278L204.8642857142857,129.54064998173666L205.07142857142858,129.349389989042L205.27857142857144,129.13138444355948L205.48571428571427,128.4695802160014L205.69285714285715,129.11974857973513L205.89999999999998,129.7104496880022L206.10714285714286,129.74626981280133L206.31428571428572,129.73826233781506L206.52142857142857,130.41195762775618L206.72857142857143,129.70254935158658L206.93571428571428,129.70022979100565L207.14285714285714,129.20176264953625L207.35,129.14605758972175L207.7642857142857,129.49023419372563L207.9714285714286,129.34126574130252L208.17857142857142,129.52475944478152L208.38571428571427,129.16285611700317L208.59285714285716,128.92358889526903L208.79999999999998,129.64290333716144L209.00714285714287,129.35174177722973L209.21428571428572,130.2464198412707L209.42142857142858,129.77285190476243L209.62857142857143,130.00201163800517L209.83571428571426,129.84745698280307L210.04285714285714,129.334349414749L210.45714285714286,129.6681096488494L210.6642857142857,129.7724905642425L210.87142857142857,129.3246049495074L211.07857142857142,129.6604421765526L211.49285714285716,129.50172005599256L211.7,129.66473557058288L211.90714285714287,129.05509134234973L212.11428571428573,129.30880435527556L212.32142857142856,129.50528261316535L212.52857142857144,129.27654479296635L212.94285714285715,128.6451773259141L213.15,128.73835639554844L213.56428571428572,129.6350133871948L213.77142857142857,129.00775848245115L213.97857142857143,129.15502986440356L214.18571428571428,128.9410183687764L214.39285714285717,129.45423624633298L214.6,129.93916652273265L215.0142857142857,129.04275036377388L215.42857142857144,128.97690021826432L216.05,129.03326535602574L216.25714285714284,129.29570876348117L216.46428571428572,128.0961752580887L216.67142857142855,128.08740510983978L217.0857142857143,128.45531784083673L217.29285714285714,128.99319070450204L217.5,128.5784144227012L217.9142857142857,128.99329865362074L218.12142857142857,129.71127923718583L218.32857142857145,129.47389276737866L218.53571428571428,129.06596043536004L218.95,128.97017635124288L219.15714285714284,129.37585581074572L219.36428571428573,129.42013871151457L219.57142857142856,129.49538372205646L219.77857142857144,129.51398068336815L219.9857142857143,129.2153879598866L220.19285714285712,129.22872774816096L220.4,128.7506935084852L220.60714285714283,128.75741565495684L220.81428571428572,128.38532461804124L221.02142857142857,128.1178195457576L221.22857142857143,128.44406695252172L221.64285714285714,128.70914057663387L222.05714285714285,129.31510957104746L222.26428571428573,129.13361099256744L222.67857142857144,128.90604182060758L222.88571428571427,129.32918039784553L223.09285714285713,129.6340513791187L223.3,129.70043082747122L223.50714285714284,129.75795890160356L223.71428571428572,129.752650115895L223.92142857142858,129.86746529460416L224.12857142857143,129.76377967191019L224.3357142857143,129.0407678031461L224.54285714285714,129.17483545682052L224.75,129.52077649915947L224.95714285714286,129.29616607954938L225.37142857142857,129.6157000978639L225.57857142857142,129.7484202837855L225.78571428571428,130.167301720137L225.99285714285713,129.76963148221648L226.20000000000002,128.57965366426274L226.40714285714284,128.31849192847707L226.82142857142858,128.39484515708625L227.2357142857143,129.42890664411746L227.44285714285712,129.23071921153763L227.85714285714286,129.25930675198973L228.06428571428572,128.98145927626098L228.47857142857143,129.30887556575658L228.68571428571428,129.0112005645211L228.89285714285714,129.52584511364552L229.10000000000002,129.55880756333502L229.51428571428573,129.63315931293386L229.72142857142856,128.9328960378946L229.92857142857142,128.86673717260248L230.34285714285713,129.21791707849434L230.55,129.34750069723088L230.75714285714287,129.33380046335196L230.9642857142857,129.22528027801118L231.3785714285714,129.11591771667244L231.5857142857143,129.50755108013772L232,129.13040587314978L232.4142857142857,128.82612285738594L232.62142857142857,129.019006672653L232.82857142857142,129.18390400359183L233.0357142857143,128.84034240215507L233.24285714285713,129.20632610779697L233.45000000000002,129.19614078796917L233.65714285714284,129.41555924771438L234.07142857142858,128.61058554862862L234.4857142857143,128.47422610411004L234.69285714285715,128.43666088753318L234.9,128.630380893787L235.10714285714286,128.1440305191518L235.3142857142857,128.6884178613568L235.52142857142857,128.80855116694838L235.72857142857143,129.18725136667294L235.9357142857143,128.90062295287728L236.14285714285714,129.15712422186067L236.35,129.7387740829821L236.7642857142857,128.80451444978928L236.9714285714286,128.4135838949407L237.17857142857142,128.40027556203157L237.3857142857143,128.66516533721892L238.00714285714287,129.39049866217024L238.2142857142857,128.942173972235L238.42142857142858,128.91655438334098L238.62857142857143,129.21830785507174L238.8357142857143,129.56898516317733L239.25,129.44014109790638L239.45714285714286,128.95278483879753L239.6642857142857,128.70167090327854L239.8714285714286,128.87550209183286L240.07857142857142,129.19367648016683L241.1142857142857,128.9937058881001L241.32142857142858,128.3795987579272L241.52857142857144,128.38725880462204L241.73571428571427,128.4803557329075L241.94285714285715,128.32233821467736L242.14999999999998,128.40010243365873L242.35714285714286,128.22256146019524L242.56428571428572,128.97891165105003L242.77142857142857,128.62147176556286L242.97857142857143,128.81558346445857L243.18571428571428,129.334724853608L243.39285714285714,129.69046013723195L243.6,128.4289013074063L243.80714285714288,129.05994042433636L244.0142857142857,129.00933947966897L244.2214285714286,130.11472846273423L244.42857142857142,129.87083662750624L244.63571428571427,129.81300242663804L244.84285714285716,130.24440132094253L245.04999999999998,129.55039079256554L245.25714285714287,129.22985970060645L245.46428571428572,128.77204059529674L245.67142857142858,129.05784958224518L245.87857142857143,129.19540947926654L246.29285714285714,128.97262046249278L246.70714285714286,129.05282272762994L246.9142857142857,129.71589165369832L247.12142857142857,129.71377745056253L247.32857142857142,129.8220164703375L247.53571428571428,129.48871033233678L247.95,129.14860097433493L248.36428571428573,128.79703535953382L248.57142857142856,128.51234599065316L248.77857142857144,129.04510799951277L248.98571428571427,128.95618957464052L249.4,129.02083896985144L249.60714285714286,129.03750338191088L249.81428571428572,129.5637520291465L250.02142857142857,128.79537644255504L250.22857142857143,128.06885064046588L250.85,128.31881038427954L251.05714285714288,129.176786680702L251.67857142857144,128.66644678335408L251.88571428571427,128.5814928449453L252.09285714285716,129.22229584200747L252.71428571428572,129.01677764024475L252.92142857142855,128.79169135907972L253.3357142857143,128.92951436531354L253.54285714285714,129.0269590693224L253.75,128.88777530655318L253.95714285714286,128.90604040899905L254.1642857142857,128.96862424539944L254.37142857142857,129.22742454723965L254.57857142857145,129.10245450327665L254.78571428571428,129.897722701966L254.99285714285716,129.1948836211796L255.2,129.10063035276147L255.61428571428573,128.960003436724L255.82142857142856,129.0747520620344L256.02857142857147,129.1288514622878L256.4428571428571,129.64068610243982L256.65,129.94041143639674L256.85714285714283,130.17924686183807L257.06428571428575,129.97391124195025L257.27142857142854,129.75138324037889L257.47857142857146,129.40207994422732L257.6857142857143,129.61287274146926L257.8928571428571,129.35142382493527L258.1,129.95122906989403L258.3071428571428,130.06952515021888L258.51428571428573,129.30615978465036L258.92857142857144,129.5449956907365L259.1357142857143,128.9832474144419L259.34285714285716,129.2583236737323L259.55,128.64161897917225L259.75714285714287,129.6359711624362L259.9642857142857,129.2590826974617L260.1714285714286,129.23207439340987L260.37857142857143,129.65591167782452L260.5857142857143,129.7135470066947L260.79285714285714,129.52687820401684L261,129.7970364225322L261.20714285714286,130.0604442007788L261.4142857142857,129.543266070333L261.62142857142857,129.66366004732066L262.0357142857143,129.17982080332524L262.24285714285713,128.76414248199515L262.45,129.31555587799105L262.65714285714284,129.60402489871234L262.8642857142857,129.1661649392274L263.07142857142856,128.73382373846928L263.2785714285714,128.59943030951834L264.10714285714283,128.41590818571103L264.52142857142854,129.2645449114266L264.7285714285714,128.17335217192309L265.1428571428571,129.14113652822098L265.35,129.3309319169326L265.5571428571429,129.81355915015956L265.76428571428573,130.12526071516285L265.9714285714286,129.78061117915874L266.3857142857143,129.76624148242811L266.59285714285716,129.285620114524L266.8,129.7450722487681L267.00714285714287,129.8924181241937L267.2142857142857,129.0220756494491L267.4214285714286,129.39284091731838L267.62857142857143,129.5047167154606L267.8357142857143,129.77033002927638L268.04285714285714,130.07719801756582L268.25,129.5975688105395L268.45714285714286,128.9410412863237L268.6642857142857,129.1149995467271L268.87142857142857,128.83439941294225L269.0785714285714,129.36813964776536L269.2857142857143,128.85500856359207L269.49285714285713,128.73835820746066L269.7,128.84252156967904L269.90714285714284,129.32876249167313L270.1142857142857,129.11900794513818L270.32142857142856,129.6864047670829L270.7357142857143,130.34396808531687L270.9428571428571,129.97298071614986L271.15000000000003,129.21053887982416L271.5642857142857,129.10707287776023L271.7714285714286,128.770643186495L271.9785714285714,128.62188546176273L272.1857142857143,129.18900650212478L272.39285714285717,129.23427912634202L272.59999999999997,129.50186729575148L273.0142857142857,129.27449560251804L273.42857142857144,129.0913644032894L273.84285714285716,129.40431819183934L274.05,129.44459046496934L274.4642857142857,129.93337905391448L274.6714285714286,128.3534026574158L274.87857142857143,128.88779114431523L275.0857142857143,129.4473746415757L275.29285714285714,129.90555001001258L275.5,129.81907955587326L275.9142857142857,129.88814723837626L276.12142857142857,129.80126356809288L276.3285714285714,126.11915827589603L276.5357142857143,120.77371618746143L276.74285714285713,117.1370633458997L276.95,115.87940437411697L277.15714285714284,113.38430854091305L277.3642857142857,113.46058512454785L277.57142857142856,113.95868425801727L277.7785714285714,114.16904283783037L278.1928571428571,113.84437648547411L278.4,114.01104350145292L278.6071428571429,114.43645928416032L279.0214285714286,113.2068755704962L279.22857142857146,113.2852930592777L279.43571428571425,114.12884265227804L279.64285714285717,113.05180514123255" style="fill: none;" fill="none"></path></g></g></g></g><g opacity="0.2"><g><g><g><path stroke="rgb(238, 51, 119)" stroke-width="2px" d="M21.12857142857143,127.95625L21.542857142857144,127.73500056266785L21.95714285714286,126.53656306266785L22.164285714285715,122.55406193733215L22.57857142857143,114.73041591644287L22.99285714285714,117.38255925178528L23.2,115.5351969242096L23.407142857142855,109.0393738746643L23.614285714285717,115.18069648742677L23.821428571428573,109.76158618927002L24.02857142857143,118.11202435493469L24.235714285714288,112.74756317138672L24.442857142857143,118.00000000000001L24.650000000000002,120.53208408355712L24.857142857142858,113.89458408355713L25.064285714285713,116.30375056266784L25.271428571428572,118.14750056266786L25.478571428571428,113.00958070755004L25.685714285714283,116.03333239555359L25.892857142857142,107.18333520889283L26.099999999999998,114.31249999999999L26.514285714285716,113.03416929244996L27.135714285714286,117.80333352088927L27.342857142857145,116.74624943733215L27.55,110.01041479110718L27.757142857142856,117.75416760444641L27.964285714285715,115.05L28.378571428571426,112.83749999999999L29,112.7637511253357L29.207142857142856,115.93500056266785L29.621428571428574,116.3529164791107L29.82857142857143,116.39262957572937L30.03571428571429,112.63196868896485L30.242857142857144,112.94812612533569L30.45,121.18968806266784L30.65714285714286,118.39333295822142L31.07142857142857,116.13166704177857L31.27857142857143,113.89458408355713L31.692857142857143,114.78401565551759L31.9,113.40291929244994L32.107142857142854,115.81208295822144L32.31428571428572,114.55833520889281L32.52142857142857,120.2862488746643L32.72857142857143,115.54166760444642L33.14285714285714,114.41083183288575L33.35,114.77958183288574L33.55714285714286,117.30917611122132L33.76428571428571,115.86124887466431L33.971428571428575,119.71680369377137L34.17857142857143,115.88583464622496L34.385714285714286,112.1L34.59285714285714,113.82083520889282L34.8,114.38624887466432L35.00714285714286,112.5424988746643L35.214285714285715,118.12291760444641L35.628571428571426,115.22208352088929L35.83571428571428,120.2125L36.042857142857144,116.18083295822143L36.25,117.75416760444641L36.66428571428571,113.25121841430663L36.871428571428574,114.5458833694458L37.07857142857143,114.69024143218994L37.285714285714285,113.00958070755004L37.7,114.9762511253357L37.90714285714286,113.40291929244994L38.32142857142857,112.66541929244994L38.52857142857143,112.17374887466431L38.73571428571428,113.82083520889282L38.94285714285714,117.68041591644287L39.150000000000006,115.86124887466431L39.357142857142854,115.39416704177857L39.77142857142857,116.1746886253357L39.97857142857143,114.31249999999999L40.18571428571428,119.2291676044464L40.392857142857146,113.08333520889282L40.80714285714286,115.59083352088928L41.01428571428571,115.19750056266784L41.42857142857142,114.58322763442995L41.635714285714286,117.90166535377503L41.84285714285715,113.98606824874878L42.05,111.2518738746643L42.25714285714286,110.08416929244996L42.464285714285715,112.88666591644287L42.67142857142857,114.70583295822144L42.878571428571426,112.51791591644287L43.292857142857144,110.25625L43.5,118.19666647911072L43.707142857142856,115.7112078666687L43.91428571428572,111.95250225067137L44.32857142857143,110.23166704177855L44.53571428571429,116.15625L44.74285714285714,118.88500056266786L44.95,114.85333070755006L45.15714285714286,118.73750000000001L45.364285714285714,116.6479176044464L45.57142857142857,115.12374887466432L45.77857142857143,115.05L45.98571428571428,113.52583408355713L46.4,116.03333239555359L46.60714285714286,110.30541591644288L46.81428571428571,111.60833520889283L47.02142857142857,117.36083464622497L47.228571428571435,113.47666816711427L47.642857142857146,111.78041591644288L47.85,118.73750000000001L48.471428571428575,116.54958295822145L48.67857142857142,109.17458295822144L49.09285714285714,113.25892696380616L49.300000000000004,117.38386182785034L49.714285714285715,113.15708408355712L50.128571428571426,115.22208352088929L50.33571428571429,115.86124887466431L50.542857142857144,116.13166704177857L50.75,117.16416535377503L50.957142857142856,113.37833070755006L51.16428571428572,114.36166591644287L51.57857142857143,113.57499999999999L51.785714285714285,111.2518738746643L51.99285714285715,115.41875L52.199999999999996,117.3362488746643L52.614285714285714,115.19750056266784L52.82142857142857,113.64874887466432L53.02857142857143,111.62062387466432L53.44285714285714,114.00442810058593L53.65,112.89146547317505L53.85714285714286,113.64874887466432L54.27142857142857,114.16500225067139L54.47857142857143,112.83749999999999L54.89285714285714,112.17374887466431L55.1,114.82874774932863L55.51428571428571,112.32125225067139L55.72142857142857,119.00791535377502L55.92857142857143,113.52583408355713L56.34285714285714,114.87791929244995L56.550000000000004,114.63208408355713L56.75714285714285,117.2625L57.17142857142857,117.11499943733216L57.37857142857143,111.78041591644288L57.58571428571428,112.71458520889283L57.792857142857144,114.7549988746643L58.207142857142856,113.32916479110717L58.41428571428571,116.27916760444641L58.621428571428574,112.64083070755005L58.82857142857142,114.16500225067139L59.035714285714285,112.1L59.24285714285715,117.18875112533568L59.449999999999996,116.03333239555359L59.65714285714286,112.7637511253357L59.864285714285714,120.48291535377503L60.278571428571425,114.55833520889281L60.48571428571429,119.47500000000001L61.107142857142854,113.89458408355713L61.93571428571429,118.51625056266784L62.14285714285714,116.37749943733215L62.55714285714286,115.6645823955536L62.76428571428572,112.88666591644287L62.97142857142857,113.00958070755004L63.385714285714286,110.02499914169312L63.59285714285714,112.74756317138672L63.8,112.7637511253357L64.00714285714287,112.9749991416931L64.21428571428571,115.05L64.83571428571429,113.96833295822144L65.04285714285714,115.88583464622496L65.25,116.3529164791107L65.45714285714286,112.34583520889282L65.87142857142857,115.05L66.07857142857144,114.06666479110717L66.28571428571428,112.73916816711427L66.49285714285715,116.525L66.7,106.71624774932862L66.90714285714286,113.45208520889283L67.11428571428571,116.15625L67.52857142857142,116.67250056266785L67.73571428571428,113.72824821472167L67.94285714285715,117.22623043060304L68.35714285714286,114.25853452682495L68.56428571428572,115.84281306266784L68.77142857142857,116.10708408355714L68.97857142857143,116.37749943733215L69.18571428571428,113.64874887466432L69.39285714285714,114.11583070755006L69.6,113.52583408355713L70.01428571428572,117.16794929504394L70.22142857142858,112.98499774932861L70.63571428571429,117.01666760444641L70.84285714285714,115.36958408355714L71.05,112.32125225067139L71.46428571428572,114.2387511253357L71.67142857142856,117.97541704177857L71.87857142857143,117.43458352088929L72.08571428571429,113.82083520889282L72.29285714285714,112.41958408355713L72.5,113.42750225067138L72.70714285714286,115.6154164791107L72.91428571428573,113.00958070755004L73.12142857142858,114.87791929244995L73.32857142857142,116.91833295822143L73.53571428571428,117.29999899864197L73.74285714285715,111.78041591644288L74.36428571428571,114.26333408355713L74.57142857142857,114.85333070755006L74.77857142857142,112.27208070755005L74.98571428571428,109.8875L75.4,113.6469539642334L75.60714285714286,114.80416479110718L75.81428571428572,110.67416591644286L76.22857142857143,110.45291929244995L76.64285714285714,115.7875L77.05714285714286,107.67500000000001L77.2642857142857,105.57312612533569L77.47142857142856,116.27916760444641L77.67857142857143,117.39156193733216L77.88571428571429,112.69000225067138L78.30000000000001,112.37041816711425L78.50714285714287,110.5487078666687L78.71428571428571,115.14833464622497L78.92142857142856,113.67333183288575L79.12857142857143,113.82083520889282L79.33571428571429,116.45125112533569L79.54285714285714,118.46708464622498L79.75,107.69958295822144L80.78571428571429,116.99208464622498L81.2,112.32888202667236L81.40714285714284,113.72008390426635L81.82142857142857,112.27208070755005L82.02857142857142,112.46875000000001L82.2357142857143,112.34583520889282L82.44285714285715,113.00958070755004L82.64999999999999,108.95333070755004L82.85714285714285,102.4387511253357L83.06428571428572,113.25541591644287L83.27142857142857,109.8875L83.47857142857143,108.80583295822143L83.6857142857143,109.51875L83.89285714285715,110.89541816711426L84.51428571428572,111.09208183288574L84.72142857142858,113.22499809265138L84.92857142857143,110.37317237854003L85.13571428571429,114.16500225067139L85.34285714285714,116.45245804786683L85.75714285714285,128.6200011253357L85.96428571428571,127.69074954986571L86.37857142857143,129.3206238746643L86.58571428571429,127.40312499999999L86.79285714285713,128.06687612533568L87,129.74468693733215L87.20714285714286,128.07424988746644L87.41428571428571,130.2424988746643L87.62142857142858,129.3575011253357L87.82857142857144,129.0625L88.03571428571428,129.60825123786927L88.24285714285713,126.90531306266784L88.45,131.03531193733215L88.65714285714286,128.7570698261261L88.86428571428571,128.83487553596495L89.27857142857144,127.95625L89.48571428571428,128.45406193733214L89.9,129.0625L90.31428571428572,130.5002513885498L90.72857142857143,129.11781306266784L91.14285714285714,130.20227375030518L91.35,129.984375L91.55714285714286,131.06850090026856L91.76428571428572,129.8737488746643L91.97142857142856,129.18086280822754L92.17857142857142,130.69393854141236L92.38571428571429,128.140625L92.59285714285714,128.7674988746643L92.8,129.15099921226502L93.00714285714287,130.85093693733216L93.21428571428572,129.00718693733216L93.42142857142856,130.62599921226501L93.62857142857142,127.71656193733216L93.83571428571429,129.67093806266786L94.04285714285714,129.60825123786927L94.25,128.74906306266786L94.45714285714287,128.63843693733216L94.66428571428571,129.8L94.87142857142857,129.35303072929383L95.07857142857142,129.8L95.28571428571429,131.459375L95.49285714285715,126.90531306266784L95.7,128.4282495498657L95.90714285714286,128.45406193733214L96.11428571428571,129.30218806266785L96.32142857142857,128.325L96.52857142857142,128.08531193733216L96.73571428571428,130.28674988746644L96.94285714285715,129.246875L97.15,129.94750056266784L97.5642857142857,129.74468693733215L97.77142857142857,131.61424932479858L98.18571428571428,129.7262511253357L98.39285714285715,130.4932489871979L98.60000000000001,129.984375L98.80714285714285,129.4607506752014L99.0142857142857,129.30218806266785L99.22142857142858,129.19156193733215L99.42857142857143,128.509375L99.84285714285716,129.11781306266784L100.05,130.29781193733214L100.46428571428571,126.79468693733216L100.67142857142858,129.3575011253357L100.87857142857143,128.878125L101.08571428571429,128.7674988746643L101.29285714285714,128.509375L101.70714285714286,128.509375L101.91428571428571,130.40843806266784L102.12142857142857,128.82650022506715L102.32857142857144,130.0950011253357L102.94999999999999,129.25424876213074L103.36428571428571,128.93343806266785L103.57142857142857,128.90606145858766L103.9857142857143,128.69375L104.19285714285714,128.4356261253357L104.39999999999999,128.82281193733215L104.81428571428572,128.56099977493287L105.02142857142857,129.19156193733215L105.43571428571428,129.4607506752014L105.85,128.45406193733214L106.05714285714286,129.30218806266785L106.26428571428572,130.05075011253356L106.67857142857143,126.53656306266785L106.88571428571429,128.82281193733215L107.09285714285714,128.6200011253357L107.71428571428572,128.6200011253357L107.92142857142858,130.0950011253357L108.12857142857142,129.56031193733216L108.33571428571427,130.69393854141236L108.54285714285714,130.94722347259523L108.75,129.3206238746643L109.16428571428573,130.89259123802185L109.57857142857142,128.76203818321227L109.99285714285715,129.8L110.40714285714286,129.1731261253357L111.02857142857142,128.325L111.23571428571428,129.56031193733216L111.65,128.74906306266786L111.85714285714286,128.47250056266785L112.06428571428572,128.56468806266784L112.27142857142857,129.3206238746643L112.47857142857143,128.56468806266784L112.89285714285714,130.03599977493286L113.10000000000001,128.5831238746643L113.30714285714286,128.140625L113.5142857142857,130.83250112533568L113.72142857142856,127.69812612533569L113.92857142857143,128.82281193733215L114.13571428571429,130.11343693733215L114.34285714285714,130.2424988746643L114.55000000000001,128.93343806266785L114.75714285714287,129.56031193733216L114.96428571428571,129.54924988746643L115.17142857142856,130.40843806266784L115.58571428571429,131.08325123786926L115.79285714285714,128.4356261253357L116,130.29166760444642L116.20714285714286,130.20227375030518L116.41428571428571,129.615625L116.62142857142857,129.615625L116.82857142857142,129.15099921226502L117.03571428571429,129.6893738746643L117.24285714285715,127.82718806266786L117.45,128.19593806266784L117.65714285714284,129.4607506752014L117.86428571428571,129.30218806266785L118.07142857142857,128.21437387466432L118.27857142857142,130.2469692707062L118.4857142857143,127.54197454452513L118.69285714285715,128.26968693733215L118.89999999999999,129.0625L119.10714285714285,130.11343693733215L119.31428571428572,129.25424876213074L119.72857142857143,129.8L119.9357142857143,130.78825011253358L120.76428571428572,128.38031306266785L121.17857142857143,130.22406306266785L121.38571428571429,128.57575011253357L121.59285714285714,126.85L121.8,130.48218693733216L122.00714285714285,129.984375L122.21428571428571,127.51375112533569L122.62857142857143,128.82281193733215L122.83571428571429,130.22406306266785L123.04285714285713,129.10675101280214L123.66428571428571,128.509375L123.87142857142858,129.246875L124.28571428571428,129.30218806266785L125.11428571428571,127.45843806266784L125.32142857142858,128.08531193733216L125.52857142857144,127.08968806266786L125.73571428571428,130.13924932479858L125.94285714285714,129.8737488746643L126.15,128.19593806266784L126.35714285714286,129.10675101280214L126.56428571428572,128.63843693733216L126.77142857142857,128.74906306266786L126.97857142857143,128.82281193733215L127.39285714285714,128.7085003376007L127.6,129.984375L127.80714285714286,129.6893738746643L128.01428571428573,130.33100090026855L128.22142857142856,129.92906193733216L128.42857142857142,129.30218806266785L128.63571428571427,130.97999887466432L129.25714285714287,130.85093693733216L129.46428571428572,128.69375L129.67142857142858,131.12749943733215L130.9142857142857,130.11343693733215L131.32857142857142,129.984375L131.53571428571428,129.711500787735L131.74285714285713,128.93343806266785L131.95000000000002,129.74468693733215L132.15714285714287,127.95625L132.3642857142857,129.54924988746643L132.57142857142856,130.90625L132.77857142857144,130.68500056266785L132.9857142857143,127.95625L133.19285714285715,128.63843693733216L133.4,130.72924876213074L133.60714285714286,128.56468806266784L133.81428571428572,128.21437387466432L134.02142857142857,129.43125L134.22857142857143,129.54671788215637L134.43571428571428,128.52530975341796L134.64285714285714,128.82281193733215L135.05714285714285,127.16343693733215L135.2642857142857,129.21000056266786L135.47142857142856,131.14593806266785L135.8857142857143,128.41439385414122L136.29999999999998,129.3206238746643L136.50714285714284,130.83250112533568L136.71428571428572,129.5418761253357L136.92142857142858,128.69375L137.12857142857143,128.0299988746643L137.54285714285714,129.8L137.75,129.0625L137.95714285714286,130.9357506752014L138.1642857142857,128.08531193733216L138.37142857142857,129.0625L138.57857142857142,130.721875L138.78571428571428,127.88250112533571L138.99285714285713,129.3575011253357L139.2,127.8456238746643L139.40714285714284,128.19593806266784L139.61428571428573,129.56031193733216L139.82142857142858,128.91499943733214L140.2357142857143,130.29781193733214L140.44285714285715,128.140625L140.65,129.10675101280214L140.85714285714286,129.984375L141.06428571428572,129.246875L141.27142857142857,128.82281193733215L141.47857142857143,130.72924876213074L141.68571428571428,127.5875L141.89285714285714,128.82281193733215L142.1,128.90606145858766L142.30714285714285,129.07160396575927L142.5142857142857,129.8L142.7214285714286,130.16875L142.92857142857144,128.6200011253357L143.34285714285713,130.4637511253357L143.55,129.21000056266786L143.75714285714287,127.40312499999999L144.17142857142858,128.93343806266785L144.37857142857143,129.65249943733215L144.5857142857143,128.08531193733216L144.79285714285714,128.56468806266784L145.20714285714286,128.82281193733215L145.4142857142857,128.82281193733215L145.62142857142857,129.30218806266785L145.82857142857145,128.7674988746643L146.03571428571428,130.03968806266784L146.24285714285716,128.7674988746643L146.45,129.9042932987213L146.86428571428573,129.48656306266784L147.27857142857144,130.353125L147.4857142857143,130.5375L147.69285714285712,128.4356261253357L148.31428571428572,128.140625L149.14285714285714,130.4637511253357L149.35,128.57575011253357L149.55714285714285,130.66656193733215L149.76428571428573,128.4356261253357L149.97142857142856,129.5049988746643L150.17857142857144,128.85600090026855L150.38571428571427,130.90625L150.59285714285713,128.509375L151.21428571428572,129.615625L151.42142857142858,128.26599864959718L151.62857142857143,127.71656193733216L151.8357142857143,130.85093693733216L152.25,129.711500787735L152.45714285714286,128.06687612533568L152.66428571428574,129.615625L153.07857142857142,131.00185289382935L153.28571428571428,129.48656306266784L153.49285714285713,130.74399909973144L153.70000000000002,132.1231261253357L153.90714285714284,128.6789996623993L154.11428571428573,131.090625L154.32142857142858,129.30218806266785L154.5285714285714,127.7737374305725L154.7357142857143,128.50709900856017L154.94285714285712,131.58843693733215L155.15,128.26968693733215L155.35714285714286,128.51674876213073L155.56428571428572,129.67093806266786L155.77142857142857,129.43125L155.97857142857143,129.66590781211852L156.18571428571428,129.36296181678773L156.80714285714285,127.80221405029297L157.01428571428573,129.4164996623993L157.42857142857142,129.11781306266784L157.6357142857143,129.85531306266785L157.84285714285713,128.82650022506715L158.05,126.72093806266784L158.25714285714287,128.01156306266785L158.4642857142857,128.63843693733216L158.67142857142858,130.29781193733214L158.8785714285714,129.94750056266784L159.0857142857143,127.5875L159.29285714285714,129.246875L159.5,129.67093806266786L159.9142857142857,127.90093693733215L160.12142857142857,128.93343806266785L160.32857142857142,129.92906193733216L160.5357142857143,130.9210003376007L160.74285714285713,129.00718693733216L160.95000000000002,129.48656306266784L161.15714285714284,128.7674988746643L161.3642857142857,130.97999887466432L161.57142857142858,129.3575011253357L161.7785714285714,129.4164996623993L161.9857142857143,129.7262511253357L162.19285714285715,128.3987488746643L162.4,130.33100090026855L162.60714285714286,128.26968693733215L162.8142857142857,129.00718693733216L163.02142857142857,128.56468806266784L163.22857142857143,129.84425101280212L163.4357142857143,129.19156193733215L163.64285714285714,129.48656306266784L163.85,130.1539996623993L164.2642857142857,129.00718693733216L164.67857142857142,129.246875L165.09285714285716,129.615625L165.7142857142857,127.95625L165.92142857142858,129.00349864959716L166.12857142857143,129.3206238746643L166.3357142857143,129.43125L166.54285714285714,129.05339603424073L166.75,128.77196927070617L166.95714285714286,129.3575011253357L167.1642857142857,128.509375L167.3714285714286,130.78825011253358L167.57857142857142,129.00718693733216L167.7857142857143,130.96156306266784L167.99285714285713,128.91499943733214L168.2,130.11343693733215L168.82142857142858,131.090625L169.02857142857144,128.7674988746643L169.23571428571427,127.66944413185121L169.64999999999998,128.56468806266784L169.85714285714286,131.40406193733216L170.06428571428572,126.72093806266784L170.27142857142857,129.75574898719788L170.47857142857143,128.06687612533568L170.68571428571428,128.0299988746643L170.89285714285714,128.98875112533568L171.1,130.1539996623993L171.30714285714288,128.06687612533568L171.92857142857142,130.0950011253357L172.13571428571427,127.16343693733215L172.34285714285716,128.93343806266785L172.54999999999998,128.56468806266784L172.96428571428572,129.48656306266784L173.17142857142858,129.74468693733215L173.37857142857143,129.99174876213073L173.58571428571426,130.96156306266784L173.79285714285714,131.18650078773499L174,128.06687612533568L174.20714285714286,129.6893738746643L174.4142857142857,131.42250056266784L174.62142857142857,128.56468806266784L174.82857142857142,128.26968693733215L175.03571428571428,131.6585003376007L175.24285714285716,129.5049988746643L175.45,127.82718806266786L175.65714285714287,127.34781193733214L176.07142857142856,129.43125L176.27857142857144,130.4555558681488L176.48571428571427,129.18086280822754L176.69285714285715,130.5375L176.9,129.0625L177.10714285714286,129.25424876213074L177.31428571428572,129.8L177.52142857142857,129.13624887466432L178.14285714285717,131.33400135040284L178.35,130.16875L178.7642857142857,131.37824954986573L178.97142857142856,130.16875L179.17857142857144,130.5375L179.38571428571427,131.14593806266785L179.59285714285716,129.8L179.8,129.30218806266785L180.21428571428572,129.11781306266784L180.42142857142855,130.48218693733216L180.62857142857143,130.8767493247986L180.8357142857143,128.878125L181.04285714285714,128.0299988746643L181.25,129.30833239555358L181.45714285714286,127.26717038154602L181.6642857142857,126.79468693733216L182.07857142857145,127.95625L182.28571428571428,130.2424988746643L182.49285714285716,127.45843806266784L182.90714285714284,129.0625L183.11428571428573,128.8043761253357L183.32142857142856,130.1539996623993L183.52857142857144,128.19593806266784L183.7357142857143,130.5375L183.94285714285712,129.11781306266784L184.35714285714283,129.98209900856017L184.56428571428572,128.26968693733215L184.77142857142857,128.56468806266784L184.97857142857143,130.2424988746643L185.18571428571428,130.16875L185.39285714285714,129.37593693733214L185.6,127.08968806266786L185.80714285714285,128.96565642356873L186.01428571428573,130.8743833065033L186.22142857142856,129.37593693733214L186.42857142857144,130.38999943733216L186.63571428571427,129.43125L187.05,131.275L187.46428571428572,130.72924876213074L187.67142857142858,129.67093806266786L187.87857142857143,128.82281193733215L188.0857142857143,127.71656193733216L188.29285714285714,130.18350033760072L188.5,127.77187500000001L188.91428571428574,130.0950011253357L189.12142857142857,128.3987488746643L189.32857142857142,130.4637511253357L189.53571428571428,127.66124887466431L189.74285714285713,128.69375L189.95000000000002,130.2424988746643L190.36428571428573,131.3192510128021L190.7785714285714,130.66656193733215L190.9857142857143,130.33100090026855L191.4,128.08531193733216L191.60714285714286,129.85959496498108L191.81428571428572,128.81666760444642L192.43571428571428,128.325L192.64285714285714,131.090625L192.85000000000002,129.85531306266785L193.05714285714285,127.62474861145019L193.26428571428573,128.76203818321227L193.47142857142856,130.4637511253357L193.67857142857142,128.69375L193.8857142857143,129.85900135040282L194.09285714285713,129.30218806266785L194.3,129.56031193733216L194.50714285714287,128.56338267326356L194.7142857142857,130.03672842979432L194.92142857142858,128.93343806266785L195.3357142857143,128.74906306266786L195.54285714285714,128.82281193733215L195.95714285714286,129.94750056266784L196.1642857142857,131.459375L196.37142857142857,130.9357506752014L196.57857142857142,127.51375112533569L196.99285714285713,127.82718806266786L197.20000000000002,127.87803072929383L197.40714285714284,129.18086280822754L197.6142857142857,128.93343806266785L198.0285714285714,127.27406306266785L198.44285714285715,128.6200011253357L198.85714285714286,127.9414996623993L199.0642857142857,130.40843806266784L199.27142857142857,129.85531306266785L199.47857142857143,129.56400022506713L199.6857142857143,130.83250112533568L200.5142857142857,130.721875L200.7214285714286,130.03968806266784L200.92857142857142,129.40174932479857L201.1357142857143,129.56031193733216L201.34285714285716,128.19593806266784L201.75714285714287,130.83250112533568L201.9642857142857,127.71656193733216L202.17142857142858,128.45406193733214L202.37857142857143,130.62599921226501L202.5857142857143,128.878125L202.79285714285714,128.7674988746643L203,128.74906306266786L203.20714285714286,129.84425101280212L203.4142857142857,130.97999887466432L203.6214285714286,128.06687612533568L204.0357142857143,129.615625L204.24285714285713,127.96742458343505L204.45,129.3811725616455L204.65714285714287,130.16875L204.8642857142857,129.615625L205.07142857142858,129.0625L205.27857142857144,128.8043761253357L205.48571428571427,127.47687387466432L205.69285714285715,130.0950011253357L205.89999999999998,130.59650135040283L206.10714285714286,129.8L206.31428571428572,129.7262511253357L206.52142857142857,131.42250056266784L206.72857142857143,128.63843693733216L206.93571428571428,129.6967504501343L207.14285714285714,128.45406193733214L207.35,129.0625L207.7642857142857,130.00649909973146L207.9714285714286,129.11781306266784L208.17857142857142,129.8L208.38571428571427,128.6200011253357L208.59285714285716,128.56468806266784L208.79999999999998,130.721875L209.00714285714287,128.91499943733214L209.21428571428572,131.58843693733215L209.42142857142858,129.0625L209.62857142857143,130.34575123786925L209.83571428571426,129.615625L210.04285714285714,128.56468806266784L210.45714285714286,130.16875L210.6642857142857,129.92906193733216L210.87142857142857,128.6527765274048L211.07857142857142,130.16419801712036L211.49285714285716,129.2636368751526L211.7,129.90925884246826L211.90714285714287,128.140625L212.11428571428573,129.6893738746643L212.32142857142856,129.8L212.52857142857144,128.93343806266785L212.94285714285715,127.69812612533569L213.15,128.878125L213.56428571428572,130.97999887466432L213.77142857142857,128.06687612533568L213.97857142857143,129.37593693733214L214.18571428571428,128.6200011253357L214.39285714285717,130.22406306266785L214.6,130.66656193733215L215.0142857142857,127.69812612533569L215.42857142857144,128.878125L216.05,129.11781306266784L216.25714285714284,129.6893738746643L216.46428571428572,126.29687500000001L216.67142857142855,128.07424988746644L217.0857142857143,129.00718693733216L217.29285714285714,129.8L217.5,127.95625L217.9142857142857,129.615625L218.12142857142857,130.78825011253358L218.32857142857145,129.11781306266784L218.53571428571428,128.45406193733214L218.95,128.82650022506715L219.15714285714284,129.984375L219.36428571428573,129.48656306266784L219.57142857142856,129.60825123786927L219.77857142857144,129.5418761253357L219.9857142857143,128.7674988746643L220.19285714285712,129.2487374305725L220.4,128.03364214897155L220.60714285714283,128.7674988746643L220.81428571428572,127.82718806266786L221.02142857142857,127.71656193733216L221.22857142857143,128.93343806266785L221.64285714285714,129.10675101280214L222.05714285714285,130.22406306266785L222.26428571428573,128.8613631248474L222.67857142857144,128.56468806266784L222.88571428571427,129.9638882637024L223.09285714285713,130.09135785102845L223.3,129.8L223.50714285714284,129.84425101280212L223.71428571428572,129.74468693733215L223.92142857142858,130.03968806266784L224.12857142857143,129.60825123786927L224.3357142857143,127.95625L224.54285714285714,129.37593693733214L224.75,130.03968806266784L224.95714285714286,128.95925045013428L225.37142857142857,130.0950011253357L225.57857142857142,129.94750056266784L225.78571428571428,130.7956238746643L225.99285714285713,129.1731261253357L226.20000000000002,126.79468693733216L226.40714285714284,127.92674932479859L226.82142857142858,128.509375L227.2357142857143,130.97999887466432L227.44285714285712,128.93343806266785L227.85714285714286,129.30218806266785L228.06428571428572,128.56468806266784L228.47857142857143,129.8L228.68571428571428,128.56468806266784L228.89285714285714,130.29781193733214L229.10000000000002,129.60825123786927L229.51428571428573,129.74468693733215L229.72142857142856,127.88250112533571L229.92857142857142,128.7674988746643L230.34285714285713,129.74468693733215L230.55,129.5418761253357L230.75714285714287,129.31325011253358L230.9642857142857,129.0625L231.3785714285714,128.9518738746643L231.5857142857143,130.0950011253357L232,128.56468806266784L232.4142857142857,128.36969833374025L232.62142857142857,129.30833239555358L232.82857142857142,129.43125L233.0357142857143,128.325L233.24285714285713,129.75530166625975L233.45000000000002,129.18086280822754L233.65714285714284,129.74468693733215L234.07142857142858,127.40312499999999L234.4857142857143,128.26968693733215L234.69285714285715,128.38031306266785L234.9,128.92096090316772L235.10714285714286,127.4145049571991L235.3142857142857,129.5049988746643L235.52142857142857,128.98875112533568L235.72857142857143,129.75530166625975L235.9357142857143,128.47068033218383L236.14285714285714,129.5418761253357L236.35,130.6112488746643L236.7642857142857,127.40312499999999L236.9714285714286,127.82718806266786L237.17857142857142,128.38031306266785L237.3857142857143,129.0625L238.00714285714287,130.47849864959716L238.2142857142857,128.26968693733215L238.42142857142858,128.878125L238.62857142857143,129.67093806266786L238.8357142857143,130.0950011253357L239.25,129.246875L239.45714285714286,128.22175045013427L239.6642857142857,128.325L239.8714285714286,129.13624887466432L240.07857142857142,129.67093806266786L241.1142857142857,128.69375L241.32142857142858,127.45843806266784L241.52857142857144,128.3987488746643L241.73571428571427,128.6200011253357L241.94285714285715,128.08531193733216L242.14999999999998,128.51674876213073L242.35714285714286,127.95625L242.56428571428572,130.11343693733215L242.77142857142857,128.08531193733216L242.97857142857143,129.10675101280214L243.18571428571428,130.11343693733215L243.39285714285714,130.22406306266785L243.6,126.53656306266785L243.80714285714288,130.00649909973146L244.0142857142857,128.93343806266785L244.2214285714286,131.77281193733216L244.42857142857142,129.5049988746643L244.63571428571427,129.7262511253357L244.84285714285716,130.8914996623993L245.04999999999998,128.509375L245.25714285714287,128.74906306266786L245.46428571428572,128.08531193733216L245.67142857142858,129.48656306266784L245.87857142857143,129.40174932479857L246.29285714285714,128.63843693733216L246.70714285714286,129.1731261253357L246.9142857142857,130.71049504280091L247.12142857142857,129.71060614585878L247.32857142857142,129.984375L247.53571428571428,128.98875112533568L247.95,128.63843693733216L248.36428571428573,128.26968693733215L248.57142857142856,128.08531193733216L248.77857142857144,129.84425101280212L248.98571428571427,128.82281193733215L249.4,129.11781306266784L249.60714285714286,129.0625L249.81428571428572,130.353125L250.02142857142857,127.64281306266784L250.22857142857143,126.97906193733216L250.85,128.69375L251.05714285714288,130.4637511253357L251.67857142857144,127.90093693733215L251.88571428571427,128.45406193733214L252.09285714285716,130.18350033760072L252.71428571428572,128.7085003376007L252.92142857142855,128.45406193733214L253.3357142857143,129.13624887466432L253.54285714285714,129.1731261253357L253.75,128.6789996623993L253.95714285714286,128.93343806266785L254.1642857142857,129.0625L254.37142857142857,129.615625L254.57857142857145,128.91499943733214L254.78571428571428,131.090625L254.99285714285716,128.140625L255.2,128.95925045013428L255.61428571428573,128.74906306266786L255.82142857142856,129.246875L256.02857142857147,129.21000056266786L256.4428571428571,130.40843806266784L256.65,130.38999943733216L256.85714285714283,130.5375L257.06428571428575,129.66590781211852L257.27142857142854,129.41759123802186L257.47857142857146,128.878125L257.6857142857143,129.92906193733216L257.8928571428571,128.95925045013428L258.1,130.85093693733216L258.3071428571428,130.2469692707062L258.51428571428573,128.1611117362976L258.92857142857144,129.90324954986573L259.1357142857143,128.140625L259.34285714285716,129.67093806266786L259.55,127.71656193733216L259.75714285714287,131.12749943733215L259.9642857142857,128.69375L260.1714285714286,129.19156193733215L260.37857142857143,130.29166760444642L260.5857142857143,129.8L260.79285714285714,129.246875L261,130.20227375030518L261.20714285714286,130.4555558681488L261.4142857142857,128.7674988746643L261.62142857142857,129.84425101280212L262.0357142857143,128.45406193733214L262.24285714285713,128.140625L262.45,130.14267597198486L262.65714285714284,130.03672842979432L262.8642857142857,128.509375L263.07142857142856,128.08531193733216L263.2785714285714,128.39784016609192L264.10714285714283,128.140625L264.52142857142854,130.5375L264.7285714285714,126.53656306266785L265.1428571428571,130.59281306266786L265.35,129.615625L265.5571428571429,130.5375L265.76428571428573,130.59281306266786L265.9714285714286,129.2636368751526L266.3857142857143,129.74468693733215L266.59285714285716,128.56468806266784L266.8,130.43425045013427L267.00714285714287,130.11343693733215L267.2142857142857,127.71656193733216L267.4214285714286,129.94898881912232L267.62857142857143,129.67253041267395L267.8357142857143,130.16875L268.04285714285714,130.5375L268.25,128.878125L268.45714285714286,127.95625L268.6642857142857,129.37593693733214L268.87142857142857,128.413499212265L269.0785714285714,130.16875L269.2857142857143,128.08531193733216L269.49285714285713,128.56338267326356L269.7,128.99876661300658L269.90714285714284,130.05812387466432L270.1142857142857,128.8043761253357L270.32142857142856,130.5375L270.7357142857143,131.33031306266784L270.9428571428571,129.4164996623993L271.15000000000003,128.06687612533568L271.5642857142857,128.9518738746643L271.7714285714286,128.26599864959718L271.9785714285714,128.3987488746643L272.1857142857143,130.03968806266784L272.39285714285717,129.30218806266785L272.59999999999997,129.90324954986573L273.0142857142857,128.93343806266785L273.42857142857144,128.81666760444642L273.84285714285716,129.8737488746643L274.05,129.5049988746643L274.4642857142857,130.66656193733215L274.6714285714286,125.98343806266784L274.87857142857143,129.6893738746643L275.0857142857143,130.28674988746644L275.29285714285714,130.59281306266786L275.5,129.6893738746643L275.9142857142857,129.99174876213073L276.12142857142857,129.67093806266786L276.3285714285714,120.59600033760071L276.5357142857143,112.75555305480958L276.74285714285713,111.68208408355711L276.95,113.99291591644287L277.15714285714284,109.64166479110717L277.3642857142857,113.57499999999999L277.57142857142856,114.70583295822144L277.7785714285714,114.48458070755004L278.1928571428571,113.3573769569397L278.4,114.26104402542114L278.6071428571429,115.07458295822144L279.0214285714286,111.3625L279.22857142857146,113.40291929244994L279.43571428571425,115.39416704177857L279.64285714285717,111.4362488746643" style="fill: none;" fill="none"></path></g></g></g></g></g></g><g transform="translate(40, 177)" clip-path="url(#clip_1)"><clipPath id="clip_1"><rect width="290" height="23"></rect></clipPath><g><g><line x1="0" y1="0" x2="0" y2="5" style="visibility: inherit;" fill="rgb(0, 0, 0)" stroke="rgb(204, 204, 204)" stroke-width="1px"></line><line x1="20.71428571428571" y1="0" x2="20.71428571428571" y2="5" style="visibility: inherit;" fill="rgb(0, 0, 0)" stroke="rgb(204, 204, 204)" stroke-width="1px"></line><line x1="41.42857142857142" y1="0" x2="41.42857142857142" y2="5" style="visibility: inherit;" fill="rgb(0, 0, 0)" stroke="rgb(204, 204, 204)" stroke-width="1px"></line><line x1="62.14285714285714" y1="0" x2="62.14285714285714" y2="5" style="visibility: inherit;" fill="rgb(0, 0, 0)" stroke="rgb(204, 204, 204)" stroke-width="1px"></line><line x1="82.85714285714285" y1="0" x2="82.85714285714285" y2="5" style="visibility: inherit;" fill="rgb(0, 0, 0)" stroke="rgb(204, 204, 204)" stroke-width="1px"></line><line x1="103.57142857142857" y1="0" x2="103.57142857142857" y2="5" style="visibility: inherit;" fill="rgb(0, 0, 0)" stroke="rgb(204, 204, 204)" stroke-width="1px"></line><line x1="124.28571428571428" y1="0" x2="124.28571428571428" y2="5" style="visibility: inherit;" fill="rgb(0, 0, 0)" stroke="rgb(204, 204, 204)" stroke-width="1px"></line><line x1="145" y1="0" x2="145" y2="5" style="visibility: inherit;" fill="rgb(0, 0, 0)" stroke="rgb(204, 204, 204)" stroke-width="1px"></line><line x1="165.7142857142857" y1="0" x2="165.7142857142857" y2="5" style="visibility: inherit;" fill="rgb(0, 0, 0)" stroke="rgb(204, 204, 204)" stroke-width="1px"></line><line x1="186.42857142857144" y1="0" x2="186.42857142857144" y2="5" style="visibility: inherit;" fill="rgb(0, 0, 0)" stroke="rgb(204, 204, 204)" stroke-width="1px"></line><line x1="207.14285714285714" y1="0" x2="207.14285714285714" y2="5" style="visibility: inherit;" fill="rgb(0, 0, 0)" stroke="rgb(204, 204, 204)" stroke-width="1px"></line><line x1="227.85714285714286" y1="0" x2="227.85714285714286" y2="5" style="visibility: inherit;" fill="rgb(0, 0, 0)" stroke="rgb(204, 204, 204)" stroke-width="1px"></line><line x1="248.57142857142856" y1="0" x2="248.57142857142856" y2="5" style="visibility: inherit;" fill="rgb(0, 0, 0)" stroke="rgb(204, 204, 204)" stroke-width="1px"></line><line x1="269.2857142857143" y1="0" x2="269.2857142857143" y2="5" style="visibility: inherit;" fill="rgb(0, 0, 0)" stroke="rgb(204, 204, 204)" stroke-width="1px"></line><line x1="290" y1="0" x2="290" y2="5" style="visibility: inherit;" fill="rgb(0, 0, 0)" stroke="rgb(204, 204, 204)" stroke-width="1px"></line></g><g transform="translate(0, 8)"><text x="0" y="0" dx="0em" dy="0.95em" style="text-anchor: middle; visibility: hidden; font-family: Roboto, sans-serif; font-size: 12px; font-weight: 200;" fill="rgb(33, 33, 33)" stroke="none" stroke-width="1px">-200k</text><text x="20.71428571428571" y="0" dx="0em" dy="0.95em" style="text-anchor: middle; visibility: inherit; font-family: Roboto, sans-serif; font-size: 12px; font-weight: 200;" fill="rgb(33, 33, 33)" stroke="none" stroke-width="1px">0</text><text x="41.42857142857142" y="0" dx="0em" dy="0.95em" style="text-anchor: middle; visibility: hidden; font-family: Roboto, sans-serif; font-size: 12px; font-weight: 200;" fill="rgb(33, 33, 33)" stroke="none" stroke-width="1px">200k</text><text x="62.14285714285714" y="0" dx="0em" dy="0.95em" style="text-anchor: middle; visibility: inherit; font-family: Roboto, sans-serif; font-size: 12px; font-weight: 200;" fill="rgb(33, 33, 33)" stroke="none" stroke-width="1px">400k</text><text x="82.85714285714285" y="0" dx="0em" dy="0.95em" style="text-anchor: middle; visibility: hidden; font-family: Roboto, sans-serif; font-size: 12px; font-weight: 200;" fill="rgb(33, 33, 33)" stroke="none" stroke-width="1px">600k</text><text x="103.57142857142857" y="0" dx="0em" dy="0.95em" style="text-anchor: middle; visibility: inherit; font-family: Roboto, sans-serif; font-size: 12px; font-weight: 200;" fill="rgb(33, 33, 33)" stroke="none" stroke-width="1px">800k</text><text x="124.28571428571428" y="0" dx="0em" dy="0.95em" style="text-anchor: middle; visibility: hidden; font-family: Roboto, sans-serif; font-size: 12px; font-weight: 200;" fill="rgb(33, 33, 33)" stroke="none" stroke-width="1px">1M</text><text x="145" y="0" dx="0em" dy="0.95em" style="text-anchor: middle; visibility: inherit; font-family: Roboto, sans-serif; font-size: 12px; font-weight: 200;" fill="rgb(33, 33, 33)" stroke="none" stroke-width="1px">1.2M</text><text x="165.7142857142857" y="0" dx="0em" dy="0.95em" style="text-anchor: middle; visibility: hidden; font-family: Roboto, sans-serif; font-size: 12px; font-weight: 200;" fill="rgb(33, 33, 33)" stroke="none" stroke-width="1px">1.4M</text><text x="186.42857142857144" y="0" dx="0em" dy="0.95em" style="text-anchor: middle; visibility: inherit; font-family: Roboto, sans-serif; font-size: 12px; font-weight: 200;" fill="rgb(33, 33, 33)" stroke="none" stroke-width="1px">1.6M</text><text x="207.14285714285714" y="0" dx="0em" dy="0.95em" style="text-anchor: middle; visibility: hidden; font-family: Roboto, sans-serif; font-size: 12px; font-weight: 200;" fill="rgb(33, 33, 33)" stroke="none" stroke-width="1px">1.8M</text><text x="227.85714285714286" y="0" dx="0em" dy="0.95em" style="text-anchor: middle; visibility: inherit; font-family: Roboto, sans-serif; font-size: 12px; font-weight: 200;" fill="rgb(33, 33, 33)" stroke="none" stroke-width="1px">2M</text><text x="248.57142857142856" y="0" dx="0em" dy="0.95em" style="text-anchor: middle; visibility: hidden; font-family: Roboto, sans-serif; font-size: 12px; font-weight: 200;" fill="rgb(33, 33, 33)" stroke="none" stroke-width="1px">2.2M</text><text x="269.2857142857143" y="0" dx="0em" dy="0.95em" style="text-anchor: middle; visibility: inherit; font-family: Roboto, sans-serif; font-size: 12px; font-weight: 200;" fill="rgb(33, 33, 33)" stroke="none" stroke-width="1px">2.4M</text><text x="290" y="0" dx="0em" dy="0.95em" style="text-anchor: middle; visibility: hidden; font-family: Roboto, sans-serif; font-size: 12px; font-weight: 200;" fill="rgb(33, 33, 33)" stroke="none" stroke-width="1px">2.6M</text></g><line x1="0" y1="0" x2="290" y2="0" fill="rgb(0, 0, 0)" stroke="rgb(204, 204, 204)" stroke-width="1px"></line></g></g></g></g></svg>